<svg id="kity_svg_6" xmlns="http://www.w3.org/2000/svg" xmlns:xlink="http://www.w3.org/1999/xlink" version="1.1" width="2357" height="2545" style="background: rgb(251, 251, 251); visibility: visible;" viewBox="0 0 2357 2545"><defs id="kity_defs_7"><linearGradient id="kity_linearGradient_17" x1="0" y1="0" x2="0" y2="1"><stop id="kity_stop_18" offset="0" stop-color="rgb(255, 255, 255)"></stop><stop id="kity_stop_19" offset="1" stop-color="rgb(204, 204, 204)"></stop></linearGradient><marker id="kity_marker_2" orient="auto" refX="6" refY="0" viewBox="-7 -7 14 14" markerWidth="7" markerHeight="7" markerUnits="userSpaceOnUse"><path id="kity_path_3" fill="rgb(115, 161, 191)" stroke="none" d="M6,0A6,6,0,1,1,-6,0A6,6,0,1,1,6,0"></path></marker></defs><g id="kity_g_8"><g id="minder1" text-rendering="optimize-speed"><g id="minder_connect_group1"><path id="kity_path_31" fill="none" stroke="rgb(115, 161, 191)" stroke-width="1" d="M918.4999621450905,1386.4999848241157A185,0,0,0,1,1103.4999621450906,1386.4999848241157"></path><path id="kity_path_33" fill="none" stroke="rgb(115, 161, 191)" stroke-width="1" d="M1321.4999621450906,1386.4999848241157C1336.4999621450906,1386.4999848241157,1336.4999621450906,451.4999848241157,1351.4999621450906,451.4999848241157L1491.4999621450906,451.4999848241157"></path><path id="kity_path_35" fill="none" stroke="rgb(115, 161, 191)" stroke-width="1" d="M1491.4999621450906,451.4999848241157C1506.4999621450906,451.4999848241157,1506.4999621450906,200.4999848241157,1521.4999621450906,200.4999848241157L1700.4999621450906,200.4999848241157"></path><path id="kity_path_37" fill="none" stroke="rgb(115, 161, 191)" stroke-width="1" d="M1700.4999621450906,200.4999848241157C1715.4999621450906,200.4999848241157,1715.4999621450906,44.4999848241157,1730.4999621450906,44.4999848241157L1913.4999621450906,44.4999848241157"></path><path id="kity_path_39" fill="none" stroke="rgb(115, 161, 191)" stroke-width="1" d="M1700.4999621450906,200.4999848241157C1715.4999621450906,200.4999848241157,1715.4999621450906,200.4999848241157,1730.4999621450906,200.4999848241157L1830.4999621450906,200.4999848241157"></path><path id="kity_path_41" fill="none" stroke="rgb(115, 161, 191)" stroke-width="1" d="M1830.4999621450906,200.4999848241157C1845.4999621450906,200.4999848241157,1845.4999621450906,96.4999848241157,1860.4999621450906,96.4999848241157L1944.4999621450906,96.4999848241157"></path><path id="kity_path_43" fill="none" stroke="rgb(115, 161, 191)" stroke-width="1" d="M1830.4999621450906,200.4999848241157C1845.4999621450906,200.4999848241157,1845.4999621450906,148.4999848241157,1860.4999621450906,148.4999848241157L1960.4999621450906,148.4999848241157"></path><path id="kity_path_45" fill="none" stroke="rgb(115, 161, 191)" stroke-width="1" d="M1830.4999621450906,200.4999848241157C1845.4999621450906,200.4999848241157,1845.4999621450906,200.4999848241157,1860.4999621450906,200.4999848241157L1958.4999621450906,200.4999848241157"></path><path id="kity_path_47" fill="none" stroke="rgb(115, 161, 191)" stroke-width="1" d="M1830.4999621450906,200.4999848241157C1845.4999621450906,200.4999848241157,1845.4999621450906,252.4999848241157,1860.4999621450906,252.4999848241157L1954.4999621450906,252.4999848241157"></path><path id="kity_path_49" fill="none" stroke="rgb(115, 161, 191)" stroke-width="1" d="M1830.4999621450906,200.4999848241157C1845.4999621450906,200.4999848241157,1845.4999621450906,304.4999848241157,1860.4999621450906,304.4999848241157L1965.4999621450906,304.4999848241157"></path><path id="kity_path_51" fill="none" stroke="rgb(115, 161, 191)" stroke-width="1" d="M1700.4999621450906,200.4999848241157C1715.4999621450906,200.4999848241157,1715.4999621450906,356.4999848241157,1730.4999621450906,356.4999848241157L2066.4999621450906,356.4999848241157"></path><path id="kity_path_53" fill="none" stroke="rgb(115, 161, 191)" stroke-width="1" d="M1491.4999621450906,451.4999848241157C1506.4999621450906,451.4999848241157,1506.4999621450906,408.4999848241157,1521.4999621450906,408.4999848241157L1610.4999621450906,408.4999848241157"></path><path id="kity_path_55" fill="none" stroke="rgb(115, 161, 191)" stroke-width="1" d="M1610.4999621450906,408.4999848241157C1625.4999621450906,408.4999848241157,1625.4999621450906,408.4999848241157,1640.4999621450906,408.4999848241157L1772.4999621450906,408.4999848241157"></path><path id="kity_path_57" fill="none" stroke="rgb(115, 161, 191)" stroke-width="1" d="M1491.4999621450906,451.4999848241157C1506.4999621450906,451.4999848241157,1506.4999621450906,486.4999848241157,1521.4999621450906,486.4999848241157L1613.4999621450906,486.4999848241157"></path><path id="kity_path_59" fill="none" stroke="rgb(115, 161, 191)" stroke-width="1" d="M1613.4999621450906,486.4999848241157C1628.4999621450906,486.4999848241157,1628.4999621450906,460.4999848241157,1643.4999621450906,460.4999848241157L1831.4999621450906,460.4999848241157"></path><path id="kity_path_61" fill="none" stroke="rgb(115, 161, 191)" stroke-width="1" d="M1613.4999621450906,486.4999848241157C1628.4999621450906,486.4999848241157,1628.4999621450906,512.4999848241157,1643.4999621450906,512.4999848241157L2026.4999621450906,512.4999848241157"></path><path id="kity_path_63" fill="none" stroke="rgb(115, 161, 191)" stroke-width="1" d="M1491.4999621450906,451.4999848241157C1506.4999621450906,451.4999848241157,1506.4999621450906,702.4999848241157,1521.4999621450906,702.4999848241157L1611.4999621450906,702.4999848241157"></path><path id="kity_path_65" fill="none" stroke="rgb(115, 161, 191)" stroke-width="1" d="M1611.4999621450906,702.4999848241157C1626.4999621450906,702.4999848241157,1626.4999621450906,702.4999848241157,1641.4999621450906,702.4999848241157L1782.4999621450906,702.4999848241157"></path><path id="kity_path_67" fill="none" stroke="rgb(115, 161, 191)" stroke-width="1" d="M1782.4999621450906,702.4999848241157C1797.4999621450906,702.4999848241157,1797.4999621450906,564.4999848241157,1812.4999621450906,564.4999848241157L1888.4999621450906,564.4999848241157"></path><path id="kity_path_69" fill="none" stroke="rgb(115, 161, 191)" stroke-width="1" d="M1782.4999621450906,702.4999848241157C1797.4999621450906,702.4999848241157,1797.4999621450906,668.4999848241157,1812.4999621450906,668.4999848241157L1974.4999621450906,668.4999848241157"></path><path id="kity_path_71" fill="none" stroke="rgb(115, 161, 191)" stroke-width="1" d="M1974.4999621450906,668.4999848241157C1989.4999621450906,668.4999848241157,1989.4999621450906,616.4999848241157,2004.4999621450906,616.4999848241157L2114.4999621450906,616.4999848241157"></path><path id="kity_path_73" fill="none" stroke="rgb(115, 161, 191)" stroke-width="1" d="M1974.4999621450906,668.4999848241157C1989.4999621450906,668.4999848241157,1989.4999621450906,668.4999848241157,2004.4999621450906,668.4999848241157L2133.4999621450906,668.4999848241157"></path><path id="kity_path_75" fill="none" stroke="rgb(115, 161, 191)" stroke-width="1" d="M1974.4999621450906,668.4999848241157C1989.4999621450906,668.4999848241157,1989.4999621450906,720.4999848241157,2004.4999621450906,720.4999848241157L2192.4999621450906,720.4999848241157"></path><path id="kity_path_77" fill="none" stroke="rgb(115, 161, 191)" stroke-width="1" d="M1782.4999621450906,702.4999848241157C1797.4999621450906,702.4999848241157,1797.4999621450906,840.4999848241157,1812.4999621450906,840.4999848241157L2064.4999621450906,840.4999848241157"></path><path id="kity_path_79" fill="none" stroke="rgb(115, 161, 191)" stroke-width="1" d="M2064.4999621450906,840.4999848241157C2079.4999621450906,840.4999848241157,2079.4999621450906,773.4999848241157,2094.4999621450906,773.4999848241157L2204.4999621450906,773.4999848241157"></path><path id="kity_path_81" fill="none" stroke="rgb(115, 161, 191)" stroke-width="1" d="M2064.4999621450906,840.4999848241157C2079.4999621450906,840.4999848241157,2079.4999621450906,825.4999848241157,2094.4999621450906,825.4999848241157L2223.4999621450906,825.4999848241157"></path><path id="kity_path_83" fill="none" stroke="rgb(115, 161, 191)" stroke-width="1" d="M2064.4999621450906,840.4999848241157C2079.4999621450906,840.4999848241157,2079.4999621450906,903.4999848241157,2094.4999621450906,903.4999848241157L2168.4999621450906,903.4999848241157"></path><path id="kity_path_85" fill="none" stroke="rgb(115, 161, 191)" stroke-width="1" d="M2168.4999621450906,903.4999848241157C2183.4999621450906,903.4999848241157,2183.4999621450906,877.4999848241157,2198.4999621450906,877.4999848241157L2329.4999621450906,877.4999848241157"></path><path id="kity_path_87" fill="none" stroke="rgb(115, 161, 191)" stroke-width="1" d="M2168.4999621450906,903.4999848241157C2183.4999621450906,903.4999848241157,2183.4999621450906,929.4999848241157,2198.4999621450906,929.4999848241157L2338.4999621450906,929.4999848241157"></path><path id="kity_path_89" fill="none" stroke="rgb(115, 161, 191)" stroke-width="1" d="M1321.4999621450906,1386.4999848241157C1336.4999621450906,1386.4999848241157,1336.4999621450906,1561.4999848241157,1351.4999621450906,1561.4999848241157L1499.4999621450906,1561.4999848241157"></path><path id="kity_path_91" fill="none" stroke="rgb(115, 161, 191)" stroke-width="1" d="M1499.4999621450906,1561.4999848241157C1514.4999621450906,1561.4999848241157,1514.4999621450906,1163.4999848241157,1529.4999621450906,1163.4999848241157L1708.4999621450906,1163.4999848241157"></path><path id="kity_path_93" fill="none" stroke="rgb(115, 161, 191)" stroke-width="1" d="M1708.4999621450906,1163.4999848241157C1723.4999621450906,1163.4999848241157,1723.4999621450906,981.4999848241157,1738.4999621450906,981.4999848241157L1826.4999621450906,981.4999848241157"></path><path id="kity_path_95" fill="none" stroke="rgb(115, 161, 191)" stroke-width="1" d="M1708.4999621450906,1163.4999848241157C1723.4999621450906,1163.4999848241157,1723.4999621450906,1033.4999848241157,1738.4999621450906,1033.4999848241157L1828.4999621450906,1033.4999848241157"></path><path id="kity_path_97" fill="none" stroke="rgb(115, 161, 191)" stroke-width="1" d="M1708.4999621450906,1163.4999848241157C1723.4999621450906,1163.4999848241157,1723.4999621450906,1085.4999848241157,1738.4999621450906,1085.4999848241157L1824.4999621450906,1085.4999848241157"></path><path id="kity_path_99" fill="none" stroke="rgb(115, 161, 191)" stroke-width="1" d="M1708.4999621450906,1163.4999848241157C1723.4999621450906,1163.4999848241157,1723.4999621450906,1137.4999848241157,1738.4999621450906,1137.4999848241157L1822.4999621450906,1137.4999848241157"></path><path id="kity_path_101" fill="none" stroke="rgb(115, 161, 191)" stroke-width="1" d="M1708.4999621450906,1163.4999848241157C1723.4999621450906,1163.4999848241157,1723.4999621450906,1189.4999848241157,1738.4999621450906,1189.4999848241157L1838.4999621450906,1189.4999848241157"></path><path id="kity_path_103" fill="none" stroke="rgb(115, 161, 191)" stroke-width="1" d="M1708.4999621450906,1163.4999848241157C1723.4999621450906,1163.4999848241157,1723.4999621450906,1241.4999848241157,1738.4999621450906,1241.4999848241157L1814.4999621450906,1241.4999848241157"></path><path id="kity_path_105" fill="none" stroke="rgb(115, 161, 191)" stroke-width="1" d="M1708.4999621450906,1163.4999848241157C1723.4999621450906,1163.4999848241157,1723.4999621450906,1293.4999848241157,1738.4999621450906,1293.4999848241157L1832.4999621450906,1293.4999848241157"></path><path id="kity_path_107" fill="none" stroke="rgb(115, 161, 191)" stroke-width="1" d="M1708.4999621450906,1163.4999848241157C1723.4999621450906,1163.4999848241157,1723.4999621450906,1345.4999848241157,1738.4999621450906,1345.4999848241157L2014.4999621450906,1345.4999848241157"></path><path id="kity_path_109" fill="none" stroke="rgb(115, 161, 191)" stroke-width="1" d="M1499.4999621450906,1561.4999848241157C1514.4999621450906,1561.4999848241157,1514.4999621450906,1449.4999848241157,1529.4999621450906,1449.4999848241157L1618.4999621450906,1449.4999848241157"></path><path id="kity_path_111" fill="none" stroke="rgb(115, 161, 191)" stroke-width="1" d="M1618.4999621450906,1449.4999848241157C1633.4999621450906,1449.4999848241157,1633.4999621450906,1449.4999848241157,1648.4999621450906,1449.4999848241157L2050.4999621450906,1449.4999848241157"></path><path id="kity_path_113" fill="none" stroke="rgb(115, 161, 191)" stroke-width="1" d="M2050.4999621450906,1449.4999848241157C2065.4999621450906,1449.4999848241157,2065.4999621450906,1449.4999848241157,2080.4999621450906,1449.4999848241157L2190.4999621450906,1449.4999848241157"></path><path id="kity_path_115" fill="none" stroke="rgb(115, 161, 191)" stroke-width="1" d="M2190.4999621450906,1449.4999848241157C2205.4999621450906,1449.4999848241157,2205.4999621450906,1397.4999848241157,2220.4999621450906,1397.4999848241157L2304.4999621450906,1397.4999848241157"></path><path id="kity_path_117" fill="none" stroke="rgb(115, 161, 191)" stroke-width="1" d="M2190.4999621450906,1449.4999848241157C2205.4999621450906,1449.4999848241157,2205.4999621450906,1449.4999848241157,2220.4999621450906,1449.4999848241157L2306.4999621450906,1449.4999848241157"></path><path id="kity_path_119" fill="none" stroke="rgb(115, 161, 191)" stroke-width="1" d="M2190.4999621450906,1449.4999848241157C2205.4999621450906,1449.4999848241157,2205.4999621450906,1501.4999848241157,2220.4999621450906,1501.4999848241157L2310.4999621450906,1501.4999848241157"></path><path id="kity_path_121" fill="none" stroke="rgb(115, 161, 191)" stroke-width="1" d="M1499.4999621450906,1561.4999848241157C1514.4999621450906,1561.4999848241157,1514.4999621450906,1605.4999848241157,1529.4999621450906,1605.4999848241157L1621.4999621450906,1605.4999848241157"></path><path id="kity_path_123" fill="none" stroke="rgb(115, 161, 191)" stroke-width="1" d="M1621.4999621450906,1605.4999848241157C1636.4999621450906,1605.4999848241157,1636.4999621450906,1553.4999848241157,1651.4999621450906,1553.4999848241157L1839.4999621450906,1553.4999848241157"></path><path id="kity_path_125" fill="none" stroke="rgb(115, 161, 191)" stroke-width="1" d="M1621.4999621450906,1605.4999848241157C1636.4999621450906,1605.4999848241157,1636.4999621450906,1605.4999848241157,1651.4999621450906,1605.4999848241157L2034.4999621450906,1605.4999848241157"></path><path id="kity_path_127" fill="none" stroke="rgb(115, 161, 191)" stroke-width="1" d="M1621.4999621450906,1605.4999848241157C1636.4999621450906,1605.4999848241157,1636.4999621450906,1657.4999848241157,1651.4999621450906,1657.4999848241157L1822.4999621450906,1657.4999848241157"></path><path id="kity_path_129" fill="none" stroke="rgb(115, 161, 191)" stroke-width="1" d="M1499.4999621450906,1561.4999848241157C1514.4999621450906,1561.4999848241157,1514.4999621450906,1955.4999848241157,1529.4999621450906,1955.4999848241157L1619.4999621450906,1955.4999848241157"></path><path id="kity_path_131" fill="none" stroke="rgb(115, 161, 191)" stroke-width="1" d="M1619.4999621450906,1955.4999848241157C1634.4999621450906,1955.4999848241157,1634.4999621450906,1779.4999848241157,1649.4999621450906,1779.4999848241157L2111.4999621450906,1779.4999848241157"></path><path id="kity_path_133" fill="none" stroke="rgb(115, 161, 191)" stroke-width="1" d="M2111.4999621450906,1779.4999848241157C2126.4999621450906,1779.4999848241157,2126.4999621450906,1727.4999848241157,2141.4999621450906,1727.4999848241157L2247.4999621450906,1727.4999848241157"></path><path id="kity_path_135" fill="none" stroke="rgb(115, 161, 191)" stroke-width="1" d="M2111.4999621450906,1779.4999848241157C2126.4999621450906,1779.4999848241157,2126.4999621450906,1797.4999848241157,2141.4999621450906,1797.4999848241157L2247.4999621450906,1797.4999848241157"></path><path id="kity_path_137" fill="none" stroke="rgb(115, 161, 191)" stroke-width="1" d="M2111.4999621450906,1779.4999848241157C2126.4999621450906,1779.4999848241157,2126.4999621450906,1849.4999848241157,2141.4999621450906,1849.4999848241157L2292.4999621450906,1849.4999848241157"></path><path id="kity_path_139" fill="none" stroke="rgb(115, 161, 191)" stroke-width="1" d="M1619.4999621450906,1955.4999848241157C1634.4999621450906,1955.4999848241157,1634.4999621450906,1901.4999848241157,1649.4999621450906,1901.4999848241157L1866.4999621450906,1901.4999848241157"></path><path id="kity_path_141" fill="none" stroke="rgb(115, 161, 191)" stroke-width="1" d="M1619.4999621450906,1955.4999848241157C1634.4999621450906,1955.4999848241157,1634.4999621450906,1979.4999848241157,1649.4999621450906,1979.4999848241157L1787.4999621450906,1979.4999848241157"></path><path id="kity_path_143" fill="none" stroke="rgb(115, 161, 191)" stroke-width="1" d="M1787.4999621450906,1979.4999848241157C1802.4999621450906,1979.4999848241157,1802.4999621450906,1953.4999848241157,1817.4999621450906,1953.4999848241157L1884.4999621450906,1953.4999848241157"></path><path id="kity_path_145" fill="none" stroke="rgb(115, 161, 191)" stroke-width="1" d="M1787.4999621450906,1979.4999848241157C1802.4999621450906,1979.4999848241157,1802.4999621450906,2005.4999848241157,1817.4999621450906,2005.4999848241157L1966.4999621450906,2005.4999848241157"></path><path id="kity_path_147" fill="none" stroke="rgb(115, 161, 191)" stroke-width="1" d="M1619.4999621450906,1955.4999848241157C1634.4999621450906,1955.4999848241157,1634.4999621450906,2131.499984824116,1649.4999621450906,2131.499984824116L1880.4999621450906,2131.499984824116"></path><path id="kity_path_149" fill="none" stroke="rgb(115, 161, 191)" stroke-width="1" d="M1880.4999621450906,2131.499984824116C1895.4999621450906,2131.499984824116,1895.4999621450906,2057.499984824116,1910.4999621450906,2057.499984824116L2020.4999621450906,2057.499984824116"></path><path id="kity_path_151" fill="none" stroke="rgb(115, 161, 191)" stroke-width="1" d="M1880.4999621450906,2131.499984824116C1895.4999621450906,2131.499984824116,1895.4999621450906,2109.499984824116,1910.4999621450906,2109.499984824116L2039.4999621450906,2109.499984824116"></path><path id="kity_path_153" fill="none" stroke="rgb(115, 161, 191)" stroke-width="1" d="M1880.4999621450906,2131.499984824116C1895.4999621450906,2131.499984824116,1895.4999621450906,2187.499984824116,1910.4999621450906,2187.499984824116L1984.4999621450906,2187.499984824116"></path><path id="kity_path_155" fill="none" stroke="rgb(115, 161, 191)" stroke-width="1" d="M1984.4999621450906,2187.499984824116C1999.4999621450906,2187.499984824116,1999.4999621450906,2161.499984824116,2014.4999621450906,2161.499984824116L2145.4999621450906,2161.499984824116"></path><path id="kity_path_157" fill="none" stroke="rgb(115, 161, 191)" stroke-width="1" d="M1984.4999621450906,2187.499984824116C1999.4999621450906,2187.499984824116,1999.4999621450906,2213.499984824116,2014.4999621450906,2213.499984824116L2154.4999621450906,2213.499984824116"></path><path id="kity_path_159" fill="none" stroke="rgb(115, 161, 191)" stroke-width="1" d="M2154.4999621450906,2213.499984824116C2169.4999621450906,2213.499984824116,2169.4999621450906,2213.499984824116,2184.4999621450906,2213.499984824116L2306.4999621450906,2213.499984824116"></path><path id="kity_path_161" fill="none" stroke="rgb(115, 161, 191)" stroke-width="1" d="M1321.4999621450906,1386.4999848241157C1336.4999621450906,1386.4999848241157,1336.4999621450906,2349.499984824116,1351.4999621450906,2349.499984824116L1494.4999621450906,2349.499984824116"></path><path id="kity_path_163" fill="none" stroke="rgb(115, 161, 191)" stroke-width="1" d="M1494.4999621450906,2349.499984824116C1509.4999621450906,2349.499984824116,1509.4999621450906,2265.499984824116,1524.4999621450906,2265.499984824116L1822.4999621450906,2265.499984824116"></path><path id="kity_path_165" fill="none" stroke="rgb(115, 161, 191)" stroke-width="1" d="M1494.4999621450906,2349.499984824116C1509.4999621450906,2349.499984824116,1509.4999621450906,2434.499984824116,1524.4999621450906,2434.499984824116L1592.4999621450906,2434.499984824116"></path><path id="kity_path_167" fill="none" stroke="rgb(115, 161, 191)" stroke-width="1" d="M1592.4999621450906,2434.499984824116C1607.4999621450906,2434.499984824116,1607.4999621450906,2369.499984824116,1622.4999621450906,2369.499984824116L1766.4999621450906,2369.499984824116"></path><path id="kity_path_169" fill="none" stroke="rgb(115, 161, 191)" stroke-width="1" d="M1766.4999621450906,2369.499984824116C1781.4999621450906,2369.499984824116,1781.4999621450906,2317.499984824116,1796.4999621450906,2317.499984824116L2083.4999621450906,2317.499984824116"></path><path id="kity_path_171" fill="none" stroke="rgb(115, 161, 191)" stroke-width="1" d="M1766.4999621450906,2369.499984824116C1781.4999621450906,2369.499984824116,1781.4999621450906,2369.499984824116,1796.4999621450906,2369.499984824116L1973.4999621450906,2369.499984824116"></path><path id="kity_path_173" fill="none" stroke="rgb(115, 161, 191)" stroke-width="1" d="M1766.4999621450906,2369.499984824116C1781.4999621450906,2369.499984824116,1781.4999621450906,2421.499984824116,1796.4999621450906,2421.499984824116L2079.4999621450906,2421.499984824116"></path><path id="kity_path_175" fill="none" stroke="rgb(115, 161, 191)" stroke-width="1" d="M1592.4999621450906,2434.499984824116C1607.4999621450906,2434.499984824116,1607.4999621450906,2499.499984824116,1622.4999621450906,2499.499984824116L1687.4999621450906,2499.499984824116"></path><path id="kity_path_177" fill="none" stroke="rgb(115, 161, 191)" stroke-width="1" d="M1687.4999621450906,2499.499984824116C1702.4999621450906,2499.499984824116,1702.4999621450906,2473.499984824116,1717.4999621450906,2473.499984824116L2017.4999621450906,2473.499984824116"></path><path id="kity_path_179" fill="none" stroke="rgb(115, 161, 191)" stroke-width="1" d="M1687.4999621450906,2499.499984824116C1702.4999621450906,2499.499984824116,1702.4999621450906,2525.499984824116,1717.4999621450906,2525.499984824116L2072.4999621450906,2525.499984824116"></path><path id="kity_path_181" fill="none" stroke="rgb(115, 161, 191)" stroke-width="1" d="M918.4999621450905,1386.4999848241157A185,0,0,0,1,733.4999621450905,1386.4999848241157"></path><path id="kity_path_183" fill="none" stroke="rgb(115, 161, 191)" stroke-width="1" d="M496.49996214509054,1386.4999848241157C481.49996214509054,1386.4999848241157,481.49996214509054,1140.4999848241157,466.49996214509054,1140.4999848241157L306.49996214509054,1140.4999848241157"></path><path id="kity_path_185" fill="none" stroke="rgb(115, 161, 191)" stroke-width="1" d="M306.49996214509054,1140.4999848241157C291.49996214509054,1140.4999848241157,291.49996214509054,1114.4999848241157,276.49996214509054,1114.4999848241157L122.49996214509054,1114.4999848241157"></path><path id="kity_path_187" fill="none" stroke="rgb(115, 161, 191)" stroke-width="1" d="M306.49996214509054,1140.4999848241157C291.49996214509054,1140.4999848241157,291.49996214509054,1166.4999848241157,276.49996214509054,1166.4999848241157L130.49996214509054,1166.4999848241157"></path><path id="kity_path_189" fill="none" stroke="rgb(115, 161, 191)" stroke-width="1" d="M496.49996214509054,1386.4999848241157C481.49996214509054,1386.4999848241157,481.49996214509054,1244.4999848241157,466.49996214509054,1244.4999848241157L269.49996214509054,1244.4999848241157"></path><path id="kity_path_191" fill="none" stroke="rgb(115, 161, 191)" stroke-width="1" d="M269.49996214509054,1244.4999848241157C254.49996214509054,1244.4999848241157,254.49996214509054,1218.4999848241157,239.49996214509054,1218.4999848241157L47.499962145090535,1218.4999848241157"></path><path id="kity_path_193" fill="none" stroke="rgb(115, 161, 191)" stroke-width="1" d="M269.49996214509054,1244.4999848241157C254.49996214509054,1244.4999848241157,254.49996214509054,1270.4999848241157,239.49996214509054,1270.4999848241157L96.49996214509054,1270.4999848241157"></path><path id="kity_path_195" fill="none" stroke="rgb(115, 161, 191)" stroke-width="1" d="M496.49996214509054,1386.4999848241157C481.49996214509054,1386.4999848241157,481.49996214509054,1400.4999848241157,466.49996214509054,1400.4999848241157L284.49996214509054,1400.4999848241157"></path><path id="kity_path_197" fill="none" stroke="rgb(115, 161, 191)" stroke-width="1" d="M284.49996214509054,1400.4999848241157C269.49996214509054,1400.4999848241157,269.49996214509054,1322.4999848241157,254.49996214509054,1322.4999848241157L56.499962145090535,1322.4999848241157"></path><path id="kity_path_199" fill="none" stroke="rgb(115, 161, 191)" stroke-width="1" d="M284.49996214509054,1400.4999848241157C269.49996214509054,1400.4999848241157,269.49996214509054,1374.4999848241157,254.49996214509054,1374.4999848241157L92.49996214509054,1374.4999848241157"></path><path id="kity_path_201" fill="none" stroke="rgb(115, 161, 191)" stroke-width="1" d="M284.49996214509054,1400.4999848241157C269.49996214509054,1400.4999848241157,269.49996214509054,1426.4999848241157,254.49996214509054,1426.4999848241157L56.499962145090535,1426.4999848241157"></path><path id="kity_path_203" fill="none" stroke="rgb(115, 161, 191)" stroke-width="1" d="M284.49996214509054,1400.4999848241157C269.49996214509054,1400.4999848241157,269.49996214509054,1478.4999848241157,254.49996214509054,1478.4999848241157L89.49996214509054,1478.4999848241157"></path><path id="kity_path_205" fill="none" stroke="rgb(115, 161, 191)" stroke-width="1" d="M496.49996214509054,1386.4999848241157C481.49996214509054,1386.4999848241157,481.49996214509054,1556.4999848241157,466.49996214509054,1556.4999848241157L327.49996214509054,1556.4999848241157"></path><path id="kity_path_207" fill="none" stroke="rgb(115, 161, 191)" stroke-width="1" d="M327.49996214509054,1556.4999848241157C312.49996214509054,1556.4999848241157,312.49996214509054,1530.4999848241157,297.49996214509054,1530.4999848241157L85.49996214509054,1530.4999848241157"></path><path id="kity_path_209" fill="none" stroke="rgb(115, 161, 191)" stroke-width="1" d="M327.49996214509054,1556.4999848241157C312.49996214509054,1556.4999848241157,312.49996214509054,1582.4999848241157,297.49996214509054,1582.4999848241157L42.499962145090535,1582.4999848241157"></path><path id="kity_path_211" fill="none" stroke="rgb(115, 161, 191)" stroke-width="1" d="M496.49996214509054,1386.4999848241157C481.49996214509054,1386.4999848241157,481.49996214509054,1660.4999848241157,466.49996214509054,1660.4999848241157L370.49996214509054,1660.4999848241157"></path><path id="kity_path_213" fill="none" stroke="rgb(115, 161, 191)" stroke-width="1" d="M370.49996214509054,1660.4999848241157C355.49996214509054,1660.4999848241157,355.49996214509054,1634.4999848241157,340.49996214509054,1634.4999848241157L20.499962145090535,1634.4999848241157"></path><path id="kity_path_215" fill="none" stroke="rgb(115, 161, 191)" stroke-width="1" d="M370.49996214509054,1660.4999848241157C355.49996214509054,1660.4999848241157,355.49996214509054,1686.4999848241157,340.49996214509054,1686.4999848241157L97.49996214509054,1686.4999848241157"></path></g><g id="minder_node1"><path id="node_outline1" fill="rgb(115, 161, 191)" stroke="rgb(57, 80, 96)" d="M856.4999621450905,1366.4999848241157h124a5,5,0,0,1,5,5v30a5,5,0,0,1,-5,5h-124a5,5,0,0,1,-5,-5v-30a5,5,0,0,1,5,-5z" stroke-width="3"></path><g id="node_text1" fill="white"><text id="kity_text_22" text-rendering="inherit" font-size="16" dy=".8em" y="1376.0999848145789" x="875.4999621450905">Knowledge</text></g></g><g id="kity_g_12"><path id="kity_path_13" fill="none" stroke="none" d="M875.4999621450905,1386.4999848241157h0v0h0z"></path></g><g id="kity_g_14"><path id="kity_path_15" fill="none" stroke="none" d="M875.4999621450905,1386.4999848241157h0v0h0z"></path><path id="kity_path_16" fill="none" stroke="none"></path></g><g id="minder_node2"><g id="node_expander75" style="cursor: pointer;"><path id="kity_path_727" fill="white" stroke="gray" d="M1104.4999588950116,1386.4999848241157A6,6,0,1,1,1092.4999588950116,1386.4999848241157A6,6,0,1,1,1104.4999588950116,1386.4999848241157"></path><path id="kity_path_728" fill="none" stroke="gray" d="M1093.9999588950116,1386.4999848241157L1102.9999588950116,1386.4999848241157"></path></g><path id="node_outline76" fill="rgb(238, 243, 246)" stroke="rgb(115, 161, 191)" d="M1108.4999586229976,1373.4999848241157h210a3,3,0,0,1,3,3v20a3,3,0,0,1,-3,3h-210a3,3,0,0,1,-3,-3v-20a3,3,0,0,1,3,-3z" stroke-width="1"></path><g id="node_text76" fill="black"><text id="kity_text_368" text-rendering="inherit" font-size="14" dy=".8em" y="1377.399984951236" x="1125.4999586229976">Logic (Certain Knowledge)</text></g></g><g id="minder_node3"><g id="node_expander28" style="cursor: pointer;"><path id="kity_path_586" fill="white" stroke="gray" d="M1361.4999553826722,437.4999981939801A6,6,0,1,1,1349.4999553826722,437.4999981939801A6,6,0,1,1,1361.4999553826722,437.4999981939801"></path><path id="kity_path_587" fill="none" stroke="gray" d="M1350.9999553826722,437.4999981939801L1359.9999553826722,437.4999981939801"></path></g><path id="node_outline29" fill="none" stroke="none" d="M1366.4999551572582,426.4999981939801h120a5,5,0,0,1,5,5v12a5,5,0,0,1,-5,5h-120a5,5,0,0,1,-5,-5v-12a5,5,0,0,1,5,-5z"></path><g id="node_text29" fill="black"><text id="kity_text_271" text-rendering="inherit" font-size="12" dy=".8em" y="429.6999982410136" x="1371.4999551572582">Propositional Logic</text></g></g><g id="minder_node4"><g id="node_expander9" style="cursor: pointer;"><path id="kity_path_529" fill="white" stroke="gray" d="M1531.4999529876493,186.50000173016133A6,6,0,1,1,1519.4999529876493,186.50000173016133A6,6,0,1,1,1531.4999529876493,186.50000173016133"></path><path id="kity_path_530" fill="none" stroke="gray" d="M1520.9999529876493,186.50000173016133L1529.9999529876493,186.50000173016133"></path></g><path id="node_outline10" fill="none" stroke="none" d="M1536.4999527622354,175.50000173016133h159a5,5,0,0,1,5,5v12a5,5,0,0,1,-5,5h-159a5,5,0,0,1,-5,-5v-12a5,5,0,0,1,5,-5z"></path><g id="node_text10" fill="black"><text id="kity_text_233" text-rendering="inherit" font-size="12" dy=".8em" y="178.7000017771948" x="1541.4999527622354">Formal Language (Syntax)</text></g></g><g id="minder_node5"><g id="node_expander1" display="none" style="cursor: pointer;"><path id="kity_path_505" fill="white" stroke="gray" d="M1740.4999500431795,30.50000392794732A6,6,0,1,1,1728.4999500431795,30.50000392794732A6,6,0,1,1,1740.4999500431795,30.50000392794732"></path><path id="kity_path_506" fill="none" stroke="gray"></path></g><path id="node_outline2" fill="none" stroke="none" d="M1745.4999498177656,19.50000392794732h163a5,5,0,0,1,5,5v12a5,5,0,0,1,-5,5h-163a5,5,0,0,1,-5,-5v-12a5,5,0,0,1,5,-5z"></path><g id="node_text2" fill="black"><text id="kity_text_217" text-rendering="inherit" font-size="12" dy=".8em" y="22.700003974980802" x="1750.4999498177656">Atomic Proposition, Literal</text></g></g><g id="minder_node6"><g id="node_expander7" style="cursor: pointer;"><path id="kity_path_523" fill="white" stroke="gray" d="M1740.4999500431795,186.50000173016133A6,6,0,1,1,1728.4999500431795,186.50000173016133A6,6,0,1,1,1740.4999500431795,186.50000173016133"></path><path id="kity_path_524" fill="none" stroke="gray" d="M1729.9999500431795,186.50000173016133L1738.9999500431795,186.50000173016133"></path></g><path id="node_outline8" fill="none" stroke="none" d="M1745.4999498177656,175.50000173016133h80a5,5,0,0,1,5,5v12a5,5,0,0,1,-5,5h-80a5,5,0,0,1,-5,-5v-12a5,5,0,0,1,5,-5z"></path><g id="node_text8" fill="black"><text id="kity_text_229" text-rendering="inherit" font-size="12" dy=".8em" y="178.7000017771948" x="1750.4999498177656">Connectives</text></g></g><g id="minder_node7"><g id="node_expander2" display="none" style="cursor: pointer;"><path id="kity_path_508" fill="white" stroke="gray" d="M1870.4999482116912,82.50000319535206A6,6,0,1,1,1858.4999482116912,82.50000319535206A6,6,0,1,1,1870.4999482116912,82.50000319535206"></path><path id="kity_path_509" fill="none" stroke="gray"></path></g><path id="node_outline3" fill="none" stroke="none" d="M1875.4999479862772,71.50000319535206h64a5,5,0,0,1,5,5v12a5,5,0,0,1,-5,5h-64a5,5,0,0,1,-5,-5v-12a5,5,0,0,1,5,-5z"></path><g id="node_text3" fill="black"><text id="kity_text_219" text-rendering="inherit" font-size="12" dy=".8em" y="74.70000324238555" x="1880.4999479862772">Negation</text></g></g><g id="minder_node8"><g id="node_expander3" display="none" style="cursor: pointer;"><path id="kity_path_511" fill="white" stroke="gray" d="M1870.4999482116912,134.50000246275658A6,6,0,1,1,1858.4999482116912,134.50000246275658A6,6,0,1,1,1870.4999482116912,134.50000246275658"></path><path id="kity_path_512" fill="none" stroke="gray"></path></g><path id="node_outline4" fill="none" stroke="none" d="M1875.4999479862772,123.50000246275658h80a5,5,0,0,1,5,5v12a5,5,0,0,1,-5,5h-80a5,5,0,0,1,-5,-5v-12a5,5,0,0,1,5,-5z"></path><g id="node_text4" fill="black"><text id="kity_text_221" text-rendering="inherit" font-size="12" dy=".8em" y="126.70000250979007" x="1880.4999479862772">Conjunction</text></g></g><g id="minder_node9"><g id="node_expander4" display="none" style="cursor: pointer;"><path id="kity_path_514" fill="white" stroke="gray" d="M1870.4999482116912,186.50000173016133A6,6,0,1,1,1858.4999482116912,186.50000173016133A6,6,0,1,1,1870.4999482116912,186.50000173016133"></path><path id="kity_path_515" fill="none" stroke="gray"></path></g><path id="node_outline5" fill="none" stroke="none" d="M1875.4999479862772,175.50000173016133h78a5,5,0,0,1,5,5v12a5,5,0,0,1,-5,5h-78a5,5,0,0,1,-5,-5v-12a5,5,0,0,1,5,-5z"></path><g id="node_text5" fill="black"><text id="kity_text_223" text-rendering="inherit" font-size="12" dy=".8em" y="178.7000017771948" x="1880.4999479862772">Disjuncition</text></g></g><g id="minder_node10"><g id="node_expander5" display="none" style="cursor: pointer;"><path id="kity_path_517" fill="white" stroke="gray" d="M1870.4999482116912,238.50000099756608A6,6,0,1,1,1858.4999482116912,238.50000099756608A6,6,0,1,1,1870.4999482116912,238.50000099756608"></path><path id="kity_path_518" fill="none" stroke="gray"></path></g><path id="node_outline6" fill="none" stroke="none" d="M1875.4999479862772,227.50000099756608h74a5,5,0,0,1,5,5v12a5,5,0,0,1,-5,5h-74a5,5,0,0,1,-5,-5v-12a5,5,0,0,1,5,-5z"></path><g id="node_text6" fill="black"><text id="kity_text_225" text-rendering="inherit" font-size="12" dy=".8em" y="230.70000104459956" x="1880.4999479862772">Implication</text></g></g><g id="minder_node11"><g id="node_expander6" display="none" style="cursor: pointer;"><path id="kity_path_520" fill="white" stroke="gray" d="M1870.4999482116912,290.50000026497037A6,6,0,1,1,1858.4999482116912,290.50000026497037A6,6,0,1,1,1870.4999482116912,290.50000026497037"></path><path id="kity_path_521" fill="none" stroke="gray"></path></g><path id="node_outline7" fill="none" stroke="none" d="M1875.4999479862772,279.50000026497037h85a5,5,0,0,1,5,5v12a5,5,0,0,1,-5,5h-85a5,5,0,0,1,-5,-5v-12a5,5,0,0,1,5,-5z"></path><g id="node_text7" fill="black"><text id="kity_text_227" text-rendering="inherit" font-size="12" dy=".8em" y="282.70000031200385" x="1880.4999479862772">Biconditional</text></g></g><g id="minder_node12"><g id="node_expander8" display="none" style="cursor: pointer;"><path id="kity_path_526" fill="white" stroke="gray" d="M1740.4999500431795,342.49999953237534A6,6,0,1,1,1728.4999500431795,342.49999953237534A6,6,0,1,1,1740.4999500431795,342.49999953237534"></path><path id="kity_path_527" fill="none" stroke="gray"></path></g><path id="node_outline9" fill="none" stroke="none" d="M1745.4999498177656,331.49999953237534h316a5,5,0,0,1,5,5v12a5,5,0,0,1,-5,5h-316a5,5,0,0,1,-5,-5v-12a5,5,0,0,1,5,-5z"></path><g id="node_text9" fill="black"><text id="kity_text_231" text-rendering="inherit" font-size="12" dy=".8em" y="334.6999995794088" x="1750.4999498177656">Formal Language Definition:&#xa0;Backus-Naur form (BNF) </text></g></g><g id="minder_node13"><g id="node_expander11" style="cursor: pointer;"><path id="kity_path_535" fill="white" stroke="gray" d="M1531.4999529876493,394.4999987997802A6,6,0,1,1,1519.4999529876493,394.4999987997802A6,6,0,1,1,1531.4999529876493,394.4999987997802"></path><path id="kity_path_536" fill="none" stroke="gray" d="M1520.9999529876493,394.4999987997802L1529.9999529876493,394.4999987997802"></path></g><path id="node_outline12" fill="none" stroke="none" d="M1536.4999527622354,383.4999987997802h69a5,5,0,0,1,5,5v12a5,5,0,0,1,-5,5h-69a5,5,0,0,1,-5,-5v-12a5,5,0,0,1,5,-5z"></path><g id="node_text12" fill="black"><text id="kity_text_237" text-rendering="inherit" font-size="12" dy=".8em" y="386.6999988468137" x="1541.4999527622354">Semantics</text></g></g><g id="minder_node14"><g id="node_expander10" display="none" style="cursor: pointer;"><path id="kity_path_532" fill="white" stroke="gray" d="M1650.499951311133,394.4999987997802A6,6,0,1,1,1638.499951311133,394.4999987997802A6,6,0,1,1,1650.499951311133,394.4999987997802"></path><path id="kity_path_533" fill="none" stroke="gray"></path></g><path id="node_outline11" fill="none" stroke="none" d="M1655.499951085719,383.4999987997802h112a5,5,0,0,1,5,5v12a5,5,0,0,1,-5,5h-112a5,5,0,0,1,-5,-5v-12a5,5,0,0,1,5,-5z"></path><g id="node_text11" fill="black"><text id="kity_text_235" text-rendering="inherit" font-size="12" dy=".8em" y="386.6999988468137" x="1660.499951085719">Truth assignment</text></g></g><g id="minder_node15"><g id="node_expander14" style="cursor: pointer;"><path id="kity_path_544" fill="white" stroke="gray" d="M1531.4999529876493,472.4999977008871A6,6,0,1,1,1519.4999529876493,472.4999977008871A6,6,0,1,1,1531.4999529876493,472.4999977008871"></path><path id="kity_path_545" fill="none" stroke="gray" d="M1520.9999529876493,472.4999977008871L1529.9999529876493,472.4999977008871"></path></g><path id="node_outline15" fill="none" stroke="none" d="M1536.4999527622354,461.4999977008871h72a5,5,0,0,1,5,5v12a5,5,0,0,1,-5,5h-72a5,5,0,0,1,-5,-5v-12a5,5,0,0,1,5,-5z"></path><g id="node_text15" fill="black"><text id="kity_text_243" text-rendering="inherit" font-size="12" dy=".8em" y="464.6999977479206" x="1541.4999527622354">Entailment</text></g></g><g id="minder_node16"><g id="node_expander12" display="none" style="cursor: pointer;"><path id="kity_path_538" fill="white" stroke="gray" d="M1653.499951268868,446.49999806718483A6,6,0,1,1,1641.499951268868,446.49999806718483A6,6,0,1,1,1653.499951268868,446.49999806718483"></path><path id="kity_path_539" fill="none" stroke="gray"></path></g><path id="node_outline13" fill="none" stroke="none" d="M1658.499951043454,435.49999806718483h168a5,5,0,0,1,5,5v12a5,5,0,0,1,-5,5h-168a5,5,0,0,1,-5,-5v-12a5,5,0,0,1,5,-5z"></path><g id="node_text13" fill="black"><text id="kity_text_239" text-rendering="inherit" font-size="12" dy=".8em" y="438.6999981142183" x="1663.499951043454">Definition: KB entails alpha&#xa0;</text></g></g><g id="minder_node17"><g id="node_expander13" display="none" style="cursor: pointer;"><path id="kity_path_541" fill="white" stroke="gray" d="M1653.499951268868,498.49999733458947A6,6,0,1,1,1641.499951268868,498.49999733458947A6,6,0,1,1,1653.499951268868,498.49999733458947"></path><path id="kity_path_542" fill="none" stroke="gray"></path></g><path id="node_outline14" fill="none" stroke="none" d="M1658.499951043454,487.49999733458947h363a5,5,0,0,1,5,5v12a5,5,0,0,1,-5,5h-363a5,5,0,0,1,-5,-5v-12a5,5,0,0,1,5,-5z"></path><g id="node_text14" fill="black"><text id="kity_text_241" text-rendering="inherit" font-size="12" dy=".8em" y="490.69999738162295" x="1663.499951043454">Valid sentences, satisfiable sentences, unsatisfiable sentences</text></g></g><g id="minder_node18"><g id="node_expander27" style="cursor: pointer;"><path id="kity_path_583" fill="white" stroke="gray" d="M1531.4999529876493,688.4999946577989A6,6,0,1,1,1519.4999529876493,688.4999946577989A6,6,0,1,1,1531.4999529876493,688.4999946577989"></path><path id="kity_path_584" fill="none" stroke="gray" d="M1520.9999529876493,688.4999946577989L1529.9999529876493,688.4999946577989"></path></g><path id="node_outline28" fill="none" stroke="none" d="M1536.4999527622354,677.4999946577989h70a5,5,0,0,1,5,5v12a5,5,0,0,1,-5,5h-70a5,5,0,0,1,-5,-5v-12a5,5,0,0,1,5,-5z"></path><g id="node_text28" fill="black"><text id="kity_text_269" text-rendering="inherit" font-size="12" dy=".8em" y="680.6999947048323" x="1541.4999527622354">Deduction</text></g></g><g id="minder_node19"><g id="node_expander26" style="cursor: pointer;"><path id="kity_path_580" fill="white" stroke="gray" d="M1651.4999512970446,688.4999946577989A6,6,0,1,1,1639.4999512970446,688.4999946577989A6,6,0,1,1,1651.4999512970446,688.4999946577989"></path><path id="kity_path_581" fill="none" stroke="gray" d="M1640.9999512970446,688.4999946577989L1649.9999512970446,688.4999946577989"></path></g><path id="node_outline27" fill="none" stroke="none" d="M1656.4999510716307,677.4999946577989h121a5,5,0,0,1,5,5v12a5,5,0,0,1,-5,5h-121a5,5,0,0,1,-5,-5v-12a5,5,0,0,1,5,-5z"></path><g id="node_text27" fill="black"><text id="kity_text_267" text-rendering="inherit" font-size="12" dy=".8em" y="680.6999947048323" x="1661.4999510716307">Deduction Systems</text></g></g><g id="minder_node20"><g id="node_expander15" display="none" style="cursor: pointer;"><path id="kity_path_547" fill="white" stroke="gray" d="M1822.4999488879332,550.4999966019941A6,6,0,1,1,1810.4999488879332,550.4999966019941A6,6,0,1,1,1822.4999488879332,550.4999966019941"></path><path id="kity_path_548" fill="none" stroke="gray"></path></g><path id="node_outline16" fill="none" stroke="none" d="M1827.4999486625193,539.4999966019941h56a5,5,0,0,1,5,5v12a5,5,0,0,1,-5,5h-56a5,5,0,0,1,-5,-5v-12a5,5,0,0,1,5,-5z"></path><g id="node_text16" fill="black"><text id="kity_text_245" text-rendering="inherit" font-size="12" dy=".8em" y="542.6999966490275" x="1832.4999486625193">11 rules</text></g></g><g id="minder_node21"><g id="node_expander19" style="cursor: pointer;"><path id="kity_path_559" fill="white" stroke="gray" d="M1822.4999488879332,654.4999951368037A6,6,0,1,1,1810.4999488879332,654.4999951368037A6,6,0,1,1,1822.4999488879332,654.4999951368037"></path><path id="kity_path_560" fill="none" stroke="gray" d="M1811.9999488879332,654.4999951368037L1820.9999488879332,654.4999951368037"></path></g><path id="node_outline20" fill="none" stroke="none" d="M1827.4999486625193,643.4999951368037h142a5,5,0,0,1,5,5v12a5,5,0,0,1,-5,5h-142a5,5,0,0,1,-5,-5v-12a5,5,0,0,1,5,-5z"></path><g id="node_text20" fill="black"><text id="kity_text_253" text-rendering="inherit" font-size="12" dy=".8em" y="646.6999951838372" x="1832.4999486625193">Resolution (single rule)</text></g></g><g id="minder_node22"><g id="node_expander16" display="none" style="cursor: pointer;"><path id="kity_path_550" fill="white" stroke="gray" d="M2014.499946182966,602.4999958693988A6,6,0,1,1,2002.499946182966,602.4999958693988A6,6,0,1,1,2014.499946182966,602.4999958693988"></path><path id="kity_path_551" fill="none" stroke="gray"></path></g><path id="node_outline17" fill="none" stroke="none" d="M2019.499945957552,591.4999958693988h90a5,5,0,0,1,5,5v12a5,5,0,0,1,-5,5h-90a5,5,0,0,1,-5,-5v-12a5,5,0,0,1,5,-5z"></path><g id="node_text17" fill="black"><text id="kity_text_247" text-rendering="inherit" font-size="12" dy=".8em" y="594.6999959164323" x="2024.499945957552">Sound (proof)</text></g></g><g id="minder_node23"><g id="node_expander17" display="none" style="cursor: pointer;"><path id="kity_path_553" fill="white" stroke="gray" d="M2014.499946182966,654.4999951368037A6,6,0,1,1,2002.499946182966,654.4999951368037A6,6,0,1,1,2014.499946182966,654.4999951368037"></path><path id="kity_path_554" fill="none" stroke="gray"></path></g><path id="node_outline18" fill="none" stroke="none" d="M2019.499945957552,643.4999951368037h109a5,5,0,0,1,5,5v12a5,5,0,0,1,-5,5h-109a5,5,0,0,1,-5,-5v-12a5,5,0,0,1,5,-5z"></path><g id="node_text18" fill="black"><text id="kity_text_249" text-rendering="inherit" font-size="12" dy=".8em" y="646.6999951838372" x="2024.499945957552">Complete (proof)</text></g></g><g id="minder_node24"><g id="node_expander18" display="none" style="cursor: pointer;"><path id="kity_path_556" fill="white" stroke="gray" d="M2014.499946182966,706.4999944042082A6,6,0,1,1,2002.499946182966,706.4999944042082A6,6,0,1,1,2014.499946182966,706.4999944042082"></path><path id="kity_path_557" fill="none" stroke="gray"></path></g><path id="node_outline19" fill="none" stroke="none" d="M2019.499945957552,695.4999944042082h168a5,5,0,0,1,5,5v12a5,5,0,0,1,-5,5h-168a5,5,0,0,1,-5,-5v-12a5,5,0,0,1,5,-5z"></path><g id="node_text19" fill="black"><text id="kity_text_251" text-rendering="inherit" font-size="12" dy=".8em" y="698.6999944512418" x="2024.499945957552">Search (Resolution process)</text></g></g><g id="minder_node25"><g id="node_expander25" style="cursor: pointer;"><path id="kity_path_577" fill="white" stroke="gray" d="M1822.4999488879332,823.9999927488248A6,6,0,1,1,1810.4999488879332,823.9999927488248A6,6,0,1,1,1822.4999488879332,823.9999927488248"></path><path id="kity_path_578" fill="none" stroke="gray" d="M1811.9999488879332,823.9999927488248L1820.9999488879332,823.9999927488248"></path></g><path id="node_outline26" fill="none" stroke="none" d="M1827.4999486625193,810.4999927558689h232a5,5,0,0,1,5,5v17a5,5,0,0,1,-5,5h-232a5,5,0,0,1,-5,-5v-17a5,5,0,0,1,5,-5z"></path><g id="node_text26" fill="black"><text id="kity_text_265" text-rendering="inherit" font-size="12" dy=".8em" y="815.6999928029024" x="1832.4999486625193">Modus Ponens for Definite Clauses</text></g><g id="kity_g_405" style="cursor: pointer;"><path id="kity_path_406" fill="none" stroke="none" d="M2040.9999468440355,814.9999927558689h12a2,2,0,0,1,2,2v13a2,2,0,0,1,-2,2h-12a2,2,0,0,1,-2,-2v-13a2,2,0,0,1,2,-2z"></path><path id="kity_path_407" fill="black" stroke="none" d="M2049.9999467546286,825.9999929016294H2043.9999467546286V824.9999929016294h6L2049.9999467546286,825.9999929016294L2049.9999467546286,825.9999929016294zM2049.9999467546286,823.9999929016294H2043.9999467546286V822.9999929016294h6V823.9999929016294zM2049.9999467546286,821.9999929016294H2043.9999467546286V820.9999929016294h6V821.9999929016294zM2049.4999467546286,827.9999929016294H2042.9999467546286V818.9999929016294h8v7.5M2049.9999467546286,828.9999929016294l2,-2V817.9999929016294H2041.9999467546286v11"></path></g></g><g id="minder_node26"><g id="node_expander20" display="none" style="cursor: pointer;"><path id="kity_path_562" fill="white" stroke="gray" d="M2104.4999449150127,759.4999936575246A6,6,0,1,1,2092.4999449150127,759.4999936575246A6,6,0,1,1,2104.4999449150127,759.4999936575246"></path><path id="kity_path_563" fill="none" stroke="gray"></path></g><path id="node_outline21" fill="none" stroke="none" d="M2109.4999446895986,748.4999936575246h90a5,5,0,0,1,5,5v12a5,5,0,0,1,-5,5h-90a5,5,0,0,1,-5,-5v-12a5,5,0,0,1,5,-5z"></path><g id="node_text21" fill="black"><text id="kity_text_255" text-rendering="inherit" font-size="12" dy=".8em" y="751.699993704558" x="2114.4999446895986">Sound (proof)</text></g></g><g id="minder_node27"><g id="node_expander21" display="none" style="cursor: pointer;"><path id="kity_path_565" fill="white" stroke="gray" d="M2104.4999449150127,811.4999929249292A6,6,0,1,1,2092.4999449150127,811.4999929249292A6,6,0,1,1,2104.4999449150127,811.4999929249292"></path><path id="kity_path_566" fill="none" stroke="gray"></path></g><path id="node_outline22" fill="none" stroke="none" d="M2109.4999446895986,800.4999929249292h109a5,5,0,0,1,5,5v12a5,5,0,0,1,-5,5h-109a5,5,0,0,1,-5,-5v-12a5,5,0,0,1,5,-5z"></path><g id="node_text22" fill="black"><text id="kity_text_257" text-rendering="inherit" font-size="12" dy=".8em" y="803.6999929719627" x="2114.4999446895986">Complete (proof)</text></g></g><g id="minder_node28"><g id="node_expander24" style="cursor: pointer;"><path id="kity_path_574" fill="white" stroke="gray" d="M2104.4999449150127,889.4999918260363A6,6,0,1,1,2092.4999449150127,889.4999918260363A6,6,0,1,1,2104.4999449150127,889.4999918260363"></path><path id="kity_path_575" fill="none" stroke="gray" d="M2093.9999449150127,889.4999918260363L2102.9999449150127,889.4999918260363"></path></g><path id="node_outline25" fill="none" stroke="none" d="M2109.4999446895986,878.4999918260363h54a5,5,0,0,1,5,5v12a5,5,0,0,1,-5,5h-54a5,5,0,0,1,-5,-5v-12a5,5,0,0,1,5,-5z"></path><g id="node_text25" fill="black"><text id="kity_text_263" text-rendering="inherit" font-size="12" dy=".8em" y="881.6999918730698" x="2114.4999446895986">Process</text></g></g><g id="minder_node29"><g id="node_expander22" display="none" style="cursor: pointer;"><path id="kity_path_568" fill="white" stroke="gray" d="M2208.4999434498222,863.4999921923339A6,6,0,1,1,2196.4999434498222,863.4999921923339A6,6,0,1,1,2208.4999434498222,863.4999921923339"></path><path id="kity_path_569" fill="none" stroke="gray"></path></g><path id="node_outline23" fill="none" stroke="none" d="M2213.499943224408,852.4999921923339h111a5,5,0,0,1,5,5v12a5,5,0,0,1,-5,5h-111a5,5,0,0,1,-5,-5v-12a5,5,0,0,1,5,-5z"></path><g id="node_text23" fill="black"><text id="kity_text_259" text-rendering="inherit" font-size="12" dy=".8em" y="855.6999922393675" x="2218.499943224408">Forward Chaining</text></g></g><g id="minder_node30"><g id="node_expander23" display="none" style="cursor: pointer;"><path id="kity_path_571" fill="white" stroke="gray" d="M2208.4999434498222,915.4999914597387A6,6,0,1,1,2196.4999434498222,915.4999914597387A6,6,0,1,1,2208.4999434498222,915.4999914597387"></path><path id="kity_path_572" fill="none" stroke="gray"></path></g><path id="node_outline24" fill="none" stroke="none" d="M2213.499943224408,904.4999914597387h120a5,5,0,0,1,5,5v12a5,5,0,0,1,-5,5h-120a5,5,0,0,1,-5,-5v-12a5,5,0,0,1,5,-5z"></path><g id="node_text24" fill="black"><text id="kity_text_261" text-rendering="inherit" font-size="12" dy=".8em" y="907.6999915067722" x="2218.499943224408">Backward Chaining</text></g></g><g id="minder_node31"><g id="node_expander64" style="cursor: pointer;"><path id="kity_path_694" fill="white" stroke="gray" d="M1361.4999553826722,1544.9999825911088A6,6,0,1,1,1349.4999553826722,1544.9999825911088A6,6,0,1,1,1361.4999553826722,1544.9999825911088"></path><path id="kity_path_695" fill="none" stroke="gray" d="M1350.9999553826722,1544.9999825911088L1359.9999553826722,1544.9999825911088"></path></g><path id="node_outline65" fill="none" stroke="none" d="M1366.4999551572582,1531.499982598153h128a5,5,0,0,1,5,5v17a5,5,0,0,1,-5,5h-128a5,5,0,0,1,-5,-5v-17a5,5,0,0,1,5,-5z"></path><g id="node_text65" fill="black"><text id="kity_text_346" text-rendering="inherit" font-size="12" dy=".8em" y="1536.6999826451865" x="1371.4999551572582">First-Order Logic</text></g><g id="kity_g_408" style="cursor: pointer;"><path id="kity_path_409" fill="none" stroke="none" d="M1475.9999556709417,1535.999982598153h12a2,2,0,0,1,2,2v13a2,2,0,0,1,-2,2h-12a2,2,0,0,1,-2,-2v-13a2,2,0,0,1,2,-2z"></path><path id="kity_path_410" fill="black" stroke="none" d="M1484.9999555815348,1546.9999827439135H1478.9999555815348V1545.9999827439135h6L1484.9999555815348,1546.9999827439135L1484.9999555815348,1546.9999827439135zM1484.9999555815348,1544.9999827439135H1478.9999555815348V1543.9999827439135h6V1544.9999827439135zM1484.9999555815348,1542.9999827439135H1478.9999555815348V1541.9999827439135h6V1542.9999827439135zM1484.4999555815348,1548.9999827439135H1477.9999555815348V1539.9999827439135h8v7.5M1484.9999555815348,1549.9999827439135l2,-2V1538.9999827439135H1476.9999555815348v11"></path></g></g><g id="minder_node32"><g id="node_expander37" style="cursor: pointer;"><path id="kity_path_613" fill="white" stroke="gray" d="M1539.4999528749422,1149.4999881630597A6,6,0,1,1,1527.4999528749422,1149.4999881630597A6,6,0,1,1,1539.4999528749422,1149.4999881630597"></path><path id="kity_path_614" fill="none" stroke="gray" d="M1528.9999528749422,1149.4999881630597L1537.9999528749422,1149.4999881630597"></path></g><path id="node_outline38" fill="none" stroke="none" d="M1544.4999526495283,1138.4999881630597h159a5,5,0,0,1,5,5v12a5,5,0,0,1,-5,5h-159a5,5,0,0,1,-5,-5v-12a5,5,0,0,1,5,-5z"></path><g id="node_text38" fill="black"><text id="kity_text_289" text-rendering="inherit" font-size="12" dy=".8em" y="1141.6999882100931" x="1549.4999526495283">Formal Language (Syntax)</text></g></g><g id="minder_node33"><g id="node_expander29" display="none" style="cursor: pointer;"><path id="kity_path_589" fill="white" stroke="gray" d="M1748.4999499304727,967.4999907271432A6,6,0,1,1,1736.4999499304727,967.4999907271432A6,6,0,1,1,1748.4999499304727,967.4999907271432"></path><path id="kity_path_590" fill="none" stroke="gray"></path></g><path id="node_outline30" fill="none" stroke="none" d="M1753.4999497050587,956.4999907271432h68a5,5,0,0,1,5,5v12a5,5,0,0,1,-5,5h-68a5,5,0,0,1,-5,-5v-12a5,5,0,0,1,5,-5z"></path><g id="node_text30" fill="black"><text id="kity_text_273" text-rendering="inherit" font-size="12" dy=".8em" y="959.6999907741767" x="1758.4999497050587">Constants</text></g></g><g id="minder_node34"><g id="node_expander30" display="none" style="cursor: pointer;"><path id="kity_path_592" fill="white" stroke="gray" d="M1748.4999499304727,1019.499989994548A6,6,0,1,1,1736.4999499304727,1019.499989994548A6,6,0,1,1,1748.4999499304727,1019.499989994548"></path><path id="kity_path_593" fill="none" stroke="gray"></path></g><path id="node_outline31" fill="none" stroke="none" d="M1753.4999497050587,1008.499989994548h70a5,5,0,0,1,5,5v12a5,5,0,0,1,-5,5h-70a5,5,0,0,1,-5,-5v-12a5,5,0,0,1,5,-5z"></path><g id="node_text31" fill="black"><text id="kity_text_275" text-rendering="inherit" font-size="12" dy=".8em" y="1011.6999900415815" x="1758.4999497050587">Predicates</text></g></g><g id="minder_node35"><g id="node_expander31" display="none" style="cursor: pointer;"><path id="kity_path_595" fill="white" stroke="gray" d="M1748.4999499304727,1071.4999892619526A6,6,0,1,1,1736.4999499304727,1071.4999892619526A6,6,0,1,1,1748.4999499304727,1071.4999892619526"></path><path id="kity_path_596" fill="none" stroke="gray"></path></g><path id="node_outline32" fill="none" stroke="none" d="M1753.4999497050587,1060.4999892619526h66a5,5,0,0,1,5,5v12a5,5,0,0,1,-5,5h-66a5,5,0,0,1,-5,-5v-12a5,5,0,0,1,5,-5z"></path><g id="node_text32" fill="black"><text id="kity_text_277" text-rendering="inherit" font-size="12" dy=".8em" y="1063.699989308986" x="1758.4999497050587">Functions</text></g></g><g id="minder_node36"><g id="node_expander32" display="none" style="cursor: pointer;"><path id="kity_path_598" fill="white" stroke="gray" d="M1748.4999499304727,1123.4999885293573A6,6,0,1,1,1736.4999499304727,1123.4999885293573A6,6,0,1,1,1748.4999499304727,1123.4999885293573"></path><path id="kity_path_599" fill="none" stroke="gray"></path></g><path id="node_outline33" fill="none" stroke="none" d="M1753.4999497050587,1112.4999885293573h64a5,5,0,0,1,5,5v12a5,5,0,0,1,-5,5h-64a5,5,0,0,1,-5,-5v-12a5,5,0,0,1,5,-5z"></path><g id="node_text33" fill="black"><text id="kity_text_279" text-rendering="inherit" font-size="12" dy=".8em" y="1115.6999885763908" x="1758.4999497050587">Variables</text></g></g><g id="minder_node37"><g id="node_expander33" display="none" style="cursor: pointer;"><path id="kity_path_601" fill="white" stroke="gray" d="M1748.4999499304727,1175.499987796762A6,6,0,1,1,1736.4999499304727,1175.499987796762A6,6,0,1,1,1748.4999499304727,1175.499987796762"></path><path id="kity_path_602" fill="none" stroke="gray"></path></g><path id="node_outline34" fill="none" stroke="none" d="M1753.4999497050587,1164.499987796762h80a5,5,0,0,1,5,5v12a5,5,0,0,1,-5,5h-80a5,5,0,0,1,-5,-5v-12a5,5,0,0,1,5,-5z"></path><g id="node_text34" fill="black"><text id="kity_text_281" text-rendering="inherit" font-size="12" dy=".8em" y="1167.6999878437955" x="1758.4999497050587">Connectives</text></g></g><g id="minder_node38"><g id="node_expander34" display="none" style="cursor: pointer;"><path id="kity_path_604" fill="white" stroke="gray" d="M1748.4999499304727,1227.4999870641668A6,6,0,1,1,1736.4999499304727,1227.4999870641668A6,6,0,1,1,1748.4999499304727,1227.4999870641668"></path><path id="kity_path_605" fill="none" stroke="gray"></path></g><path id="node_outline35" fill="none" stroke="none" d="M1753.4999497050587,1216.4999870641668h56a5,5,0,0,1,5,5v12a5,5,0,0,1,-5,5h-56a5,5,0,0,1,-5,-5v-12a5,5,0,0,1,5,-5z"></path><g id="node_text35" fill="black"><text id="kity_text_283" text-rendering="inherit" font-size="12" dy=".8em" y="1219.6999871112002" x="1758.4999497050587">Equality</text></g></g><g id="minder_node39"><g id="node_expander35" display="none" style="cursor: pointer;"><path id="kity_path_607" fill="white" stroke="gray" d="M1748.4999499304727,1279.4999863315713A6,6,0,1,1,1736.4999499304727,1279.4999863315713A6,6,0,1,1,1748.4999499304727,1279.4999863315713"></path><path id="kity_path_608" fill="none" stroke="gray"></path></g><path id="node_outline36" fill="none" stroke="none" d="M1753.4999497050587,1268.4999863315713h74a5,5,0,0,1,5,5v12a5,5,0,0,1,-5,5h-74a5,5,0,0,1,-5,-5v-12a5,5,0,0,1,5,-5z"></path><g id="node_text36" fill="black"><text id="kity_text_285" text-rendering="inherit" font-size="12" dy=".8em" y="1271.6999863786048" x="1758.4999497050587">Quantifiers</text></g></g><g id="minder_node40"><g id="node_expander36" display="none" style="cursor: pointer;"><path id="kity_path_610" fill="white" stroke="gray" d="M1748.4999499304727,1331.499985598976A6,6,0,1,1,1736.4999499304727,1331.499985598976A6,6,0,1,1,1748.4999499304727,1331.499985598976"></path><path id="kity_path_611" fill="none" stroke="gray"></path></g><path id="node_outline37" fill="none" stroke="none" d="M1753.4999497050587,1320.499985598976h256a5,5,0,0,1,5,5v12a5,5,0,0,1,-5,5h-256a5,5,0,0,1,-5,-5v-12a5,5,0,0,1,5,-5z"></path><g id="node_text37" fill="black"><text id="kity_text_287" text-rendering="inherit" font-size="12" dy=".8em" y="1323.6999856460095" x="1758.4999497050587">Datalog: FOL without functions (decidable)</text></g></g><g id="minder_node41"><g id="node_expander43" style="cursor: pointer;"><path id="kity_path_631" fill="white" stroke="gray" d="M1539.4999528749422,1435.4999841337856A6,6,0,1,1,1527.4999528749422,1435.4999841337856A6,6,0,1,1,1539.4999528749422,1435.4999841337856"></path><path id="kity_path_632" fill="none" stroke="gray" d="M1528.9999528749422,1435.4999841337856L1537.9999528749422,1435.4999841337856"></path></g><path id="node_outline44" fill="none" stroke="none" d="M1544.4999526495283,1424.4999841337856h69a5,5,0,0,1,5,5v12a5,5,0,0,1,-5,5h-69a5,5,0,0,1,-5,-5v-12a5,5,0,0,1,5,-5z"></path><g id="node_text44" fill="black"><text id="kity_text_301" text-rendering="inherit" font-size="12" dy=".8em" y="1427.699984180819" x="1549.4999526495283">Semantics</text></g></g><g id="minder_node42"><g id="node_expander42" style="cursor: pointer;"><path id="kity_path_628" fill="white" stroke="gray" d="M1658.499951198426,1435.4999841337856A6,6,0,1,1,1646.499951198426,1435.4999841337856A6,6,0,1,1,1658.499951198426,1435.4999841337856"></path><path id="kity_path_629" fill="none" stroke="gray" d="M1647.999951198426,1435.4999841337856L1656.999951198426,1435.4999841337856"></path></g><path id="node_outline43" fill="none" stroke="none" d="M1663.4999509730121,1424.4999841337856h382a5,5,0,0,1,5,5v12a5,5,0,0,1,-5,5h-382a5,5,0,0,1,-5,-5v-12a5,5,0,0,1,5,-5z"></path><g id="node_text43" fill="black"><text id="kity_text_299" text-rendering="inherit" font-size="12" dy=".8em" y="1427.699984180819" x="1668.4999509730121">Sentences are true with respect to a model and an interpretation</text></g></g><g id="minder_node43"><g id="node_expander41" style="cursor: pointer;"><path id="kity_path_625" fill="white" stroke="gray" d="M2090.4999451122494,1435.4999841337856A6,6,0,1,1,2078.4999451122494,1435.4999841337856A6,6,0,1,1,2090.4999451122494,1435.4999841337856"></path><path id="kity_path_626" fill="none" stroke="gray" d="M2079.9999451122494,1435.4999841337856L2088.9999451122494,1435.4999841337856"></path></g><path id="node_outline42" fill="none" stroke="none" d="M2095.4999448868357,1424.4999841337856h90a5,5,0,0,1,5,5v12a5,5,0,0,1,-5,5h-90a5,5,0,0,1,-5,-5v-12a5,5,0,0,1,5,-5z"></path><g id="node_text42" fill="black"><text id="kity_text_297" text-rendering="inherit" font-size="12" dy=".8em" y="1427.699984180819" x="2100.4999448868357">Interpretation</text></g></g><g id="minder_node44"><g id="node_expander38" display="none" style="cursor: pointer;"><path id="kity_path_616" fill="white" stroke="gray" d="M2230.4999431398774,1383.4999848663808A6,6,0,1,1,2218.4999431398774,1383.4999848663808A6,6,0,1,1,2230.4999431398774,1383.4999848663808"></path><path id="kity_path_617" fill="none" stroke="gray"></path></g><path id="node_outline39" fill="none" stroke="none" d="M2235.4999429144636,1372.4999848663808h64a5,5,0,0,1,5,5v12a5,5,0,0,1,-5,5h-64a5,5,0,0,1,-5,-5v-12a5,5,0,0,1,5,-5z"></path><g id="node_text39" fill="black"><text id="kity_text_291" text-rendering="inherit" font-size="12" dy=".8em" y="1375.6999849134143" x="2240.4999429144636">Variables</text></g></g><g id="minder_node45"><g id="node_expander39" display="none" style="cursor: pointer;"><path id="kity_path_619" fill="white" stroke="gray" d="M2230.4999431398774,1435.4999841337856A6,6,0,1,1,2218.4999431398774,1435.4999841337856A6,6,0,1,1,2230.4999431398774,1435.4999841337856"></path><path id="kity_path_620" fill="none" stroke="gray"></path></g><path id="node_outline40" fill="none" stroke="none" d="M2235.4999429144636,1424.4999841337856h66a5,5,0,0,1,5,5v12a5,5,0,0,1,-5,5h-66a5,5,0,0,1,-5,-5v-12a5,5,0,0,1,5,-5z"></path><g id="node_text40" fill="black"><text id="kity_text_293" text-rendering="inherit" font-size="12" dy=".8em" y="1427.699984180819" x="2240.4999429144636">Functions</text></g></g><g id="minder_node46"><g id="node_expander40" display="none" style="cursor: pointer;"><path id="kity_path_622" fill="white" stroke="gray" d="M2230.4999431398774,1487.49998340119A6,6,0,1,1,2218.4999431398774,1487.49998340119A6,6,0,1,1,2230.4999431398774,1487.49998340119"></path><path id="kity_path_623" fill="none" stroke="gray"></path></g><path id="node_outline41" fill="none" stroke="none" d="M2235.4999429144636,1476.49998340119h70a5,5,0,0,1,5,5v12a5,5,0,0,1,-5,5h-70a5,5,0,0,1,-5,-5v-12a5,5,0,0,1,5,-5z"></path><g id="node_text41" fill="black"><text id="kity_text_295" text-rendering="inherit" font-size="12" dy=".8em" y="1479.6999834482235" x="2240.4999429144636">Predicates</text></g></g><g id="minder_node47"><g id="node_expander47" style="cursor: pointer;"><path id="kity_path_643" fill="white" stroke="gray" d="M1539.4999528749422,1591.4999819359996A6,6,0,1,1,1527.4999528749422,1591.4999819359996A6,6,0,1,1,1539.4999528749422,1591.4999819359996"></path><path id="kity_path_644" fill="none" stroke="gray" d="M1528.9999528749422,1591.4999819359996L1537.9999528749422,1591.4999819359996"></path></g><path id="node_outline48" fill="none" stroke="none" d="M1544.4999526495283,1580.4999819359996h72a5,5,0,0,1,5,5v12a5,5,0,0,1,-5,5h-72a5,5,0,0,1,-5,-5v-12a5,5,0,0,1,5,-5z"></path><g id="node_text48" fill="black"><text id="kity_text_309" text-rendering="inherit" font-size="12" dy=".8em" y="1583.699981983033" x="1549.4999526495283">Entailment</text></g></g><g id="minder_node48"><g id="node_expander44" display="none" style="cursor: pointer;"><path id="kity_path_634" fill="white" stroke="gray" d="M1661.4999511561607,1539.4999826685948A6,6,0,1,1,1649.4999511561607,1539.4999826685948A6,6,0,1,1,1661.4999511561607,1539.4999826685948"></path><path id="kity_path_635" fill="none" stroke="gray"></path></g><path id="node_outline45" fill="none" stroke="none" d="M1666.4999509307468,1528.4999826685948h168a5,5,0,0,1,5,5v12a5,5,0,0,1,-5,5h-168a5,5,0,0,1,-5,-5v-12a5,5,0,0,1,5,-5z"></path><g id="node_text45" fill="black"><text id="kity_text_303" text-rendering="inherit" font-size="12" dy=".8em" y="1531.6999827156283" x="1671.4999509307468">Definition: KB entails alpha&#xa0;</text></g></g><g id="minder_node49"><g id="node_expander45" display="none" style="cursor: pointer;"><path id="kity_path_637" fill="white" stroke="gray" d="M1661.4999511561607,1591.4999819359996A6,6,0,1,1,1649.4999511561607,1591.4999819359996A6,6,0,1,1,1661.4999511561607,1591.4999819359996"></path><path id="kity_path_638" fill="none" stroke="gray"></path></g><path id="node_outline46" fill="none" stroke="none" d="M1666.4999509307468,1580.4999819359996h363a5,5,0,0,1,5,5v12a5,5,0,0,1,-5,5h-363a5,5,0,0,1,-5,-5v-12a5,5,0,0,1,5,-5z"></path><g id="node_text46" fill="black"><text id="kity_text_305" text-rendering="inherit" font-size="12" dy=".8em" y="1583.699981983033" x="1671.4999509307468">Valid sentences, satisfiable sentences, unsatisfiable sentences</text></g></g><g id="minder_node50"><g id="node_expander46" display="none" style="cursor: pointer;"><path id="kity_path_640" fill="white" stroke="gray" d="M1661.4999511561607,1643.4999812034043A6,6,0,1,1,1649.4999511561607,1643.4999812034043A6,6,0,1,1,1661.4999511561607,1643.4999812034043"></path><path id="kity_path_641" fill="none" stroke="gray"></path></g><path id="node_outline47" fill="none" stroke="none" d="M1666.4999509307468,1632.4999812034043h151a5,5,0,0,1,5,5v12a5,5,0,0,1,-5,5h-151a5,5,0,0,1,-5,-5v-12a5,5,0,0,1,5,-5z"></path><g id="node_text47" fill="black"><text id="kity_text_307" text-rendering="inherit" font-size="12" dy=".8em" y="1635.6999812504378" x="1671.4999509307468">Properties of Quantifiers</text></g></g><g id="minder_node51"><g id="node_expander63" style="cursor: pointer;"><path id="kity_path_691" fill="white" stroke="gray" d="M1539.4999528749422,1941.4999770050697A6,6,0,1,1,1527.4999528749422,1941.4999770050697A6,6,0,1,1,1539.4999528749422,1941.4999770050697"></path><path id="kity_path_692" fill="none" stroke="gray" d="M1528.9999528749422,1941.4999770050697L1537.9999528749422,1941.4999770050697"></path></g><path id="node_outline64" fill="none" stroke="none" d="M1544.4999526495283,1930.4999770050697h70a5,5,0,0,1,5,5v12a5,5,0,0,1,-5,5h-70a5,5,0,0,1,-5,-5v-12a5,5,0,0,1,5,-5z"></path><g id="node_text64" fill="black"><text id="kity_text_344" text-rendering="inherit" font-size="12" dy=".8em" y="1933.6999770521031" x="1549.4999526495283">Deduction</text></g></g><g id="minder_node52"><g id="node_expander51" style="cursor: pointer;"><path id="kity_path_655" fill="white" stroke="gray" d="M1659.4999511843378,1765.499979484623A6,6,0,1,1,1647.4999511843378,1765.499979484623A6,6,0,1,1,1659.4999511843378,1765.499979484623"></path><path id="kity_path_656" fill="none" stroke="gray" d="M1648.9999511843378,1765.499979484623L1657.9999511843378,1765.499979484623"></path></g><path id="node_outline52" fill="none" stroke="none" d="M1664.4999509589238,1754.499979484623h442a5,5,0,0,1,5,5v12a5,5,0,0,1,-5,5h-442a5,5,0,0,1,-5,-5v-12a5,5,0,0,1,5,-5z"></path><g id="node_text52" fill="black"><text id="kity_text_319" text-rendering="inherit" font-size="12" dy=".8em" y="1757.6999795316565" x="1669.4999509589238">Instantiation (reduction to propositional inference&#xa0;):&#xa0;Inferentially Equivalent </text></g></g><g id="minder_node53"><g id="node_expander48" display="none" style="cursor: pointer;"><path id="kity_path_646" fill="white" stroke="gray" d="M2151.4999442528588,1704.4999803440137A6,6,0,1,1,2139.4999442528588,1704.4999803440137A6,6,0,1,1,2151.4999442528588,1704.4999803440137"></path><path id="kity_path_647" fill="none" stroke="gray"></path></g><path id="node_outline49" fill="none" stroke="none" d="M2156.499944027445,1684.4999803440137h86a5,5,0,0,1,5,5v30a5,5,0,0,1,-5,5h-86a5,5,0,0,1,-5,-5v-30a5,5,0,0,1,5,-5z"></path><g id="node_text49" fill="black"><text id="kity_text_311" text-rendering="inherit" font-size="12" dy=".8em" y="1687.6999803910471" x="2161.499944027445">Universal</text><text id="kity_text_312" text-rendering="inherit" font-size="12" dy=".8em" y="1705.6999803910471" x="2161.499944027445">Instantiation&#xa0;</text></g></g><g id="minder_node54"><g id="node_expander49" display="none" style="cursor: pointer;"><path id="kity_path_649" fill="white" stroke="gray" d="M2151.4999442528588,1774.4999793578277A6,6,0,1,1,2139.4999442528588,1774.4999793578277A6,6,0,1,1,2151.4999442528588,1774.4999793578277"></path><path id="kity_path_650" fill="none" stroke="gray"></path></g><path id="node_outline50" fill="none" stroke="none" d="M2156.499944027445,1754.4999793578277h86a5,5,0,0,1,5,5v30a5,5,0,0,1,-5,5h-86a5,5,0,0,1,-5,-5v-30a5,5,0,0,1,5,-5z"></path><g id="node_text50" fill="black"><text id="kity_text_314" text-rendering="inherit" font-size="12" dy=".8em" y="1757.699979404861" x="2161.499944027445">Existential</text><text id="kity_text_315" text-rendering="inherit" font-size="12" dy=".8em" y="1775.699979404861" x="2161.499944027445">Instantiation&#xa0;</text></g></g><g id="minder_node55"><g id="node_expander50" display="none" style="cursor: pointer;"><path id="kity_path_652" fill="white" stroke="gray" d="M2151.4999442528588,1835.499978498437A6,6,0,1,1,2139.4999442528588,1835.499978498437A6,6,0,1,1,2151.4999442528588,1835.499978498437"></path><path id="kity_path_653" fill="none" stroke="gray"></path></g><path id="node_outline51" fill="none" stroke="none" d="M2156.499944027445,1824.499978498437h131a5,5,0,0,1,5,5v12a5,5,0,0,1,-5,5h-131a5,5,0,0,1,-5,-5v-12a5,5,0,0,1,5,-5z"></path><g id="node_text51" fill="black"><text id="kity_text_317" text-rendering="inherit" font-size="12" dy=".8em" y="1827.6999785454705" x="2161.499944027445">FOL is semidecidable</text></g></g><g id="minder_node56"><g id="node_expander52" display="none" style="cursor: pointer;"><path id="kity_path_658" fill="white" stroke="gray" d="M1659.4999511843378,1887.4999777658418A6,6,0,1,1,1647.4999511843378,1887.4999777658418A6,6,0,1,1,1659.4999511843378,1887.4999777658418"></path><path id="kity_path_659" fill="none" stroke="gray"></path></g><path id="node_outline53" fill="none" stroke="none" d="M1664.4999509589238,1876.4999777658418h197a5,5,0,0,1,5,5v12a5,5,0,0,1,-5,5h-197a5,5,0,0,1,-5,-5v-12a5,5,0,0,1,5,-5z"></path><g id="node_text53" fill="black"><text id="kity_text_321" text-rendering="inherit" font-size="12" dy=".8em" y="1879.6999778128752" x="1669.4999509589238">Unification (Standardizing apart)</text></g></g><g id="minder_node57"><g id="node_expander55" style="cursor: pointer;"><path id="kity_path_667" fill="white" stroke="gray" d="M1659.4999511843378,1965.4999766669487A6,6,0,1,1,1647.4999511843378,1965.4999766669487A6,6,0,1,1,1659.4999511843378,1965.4999766669487"></path><path id="kity_path_668" fill="none" stroke="gray" d="M1648.9999511843378,1965.4999766669487L1657.9999511843378,1965.4999766669487"></path></g><path id="node_outline56" fill="none" stroke="none" d="M1664.4999509589238,1954.4999766669487h118a5,5,0,0,1,5,5v12a5,5,0,0,1,-5,5h-118a5,5,0,0,1,-5,-5v-12a5,5,0,0,1,5,-5z"></path><g id="node_text56" fill="black"><text id="kity_text_327" text-rendering="inherit" font-size="12" dy=".8em" y="1957.699976713982" x="1669.4999509589238">Resolution for FOL</text></g></g><g id="minder_node58"><g id="node_expander53" display="none" style="cursor: pointer;"><path id="kity_path_661" fill="white" stroke="gray" d="M1827.4999488174915,1939.4999770332463A6,6,0,1,1,1815.4999488174915,1939.4999770332463A6,6,0,1,1,1827.4999488174915,1939.4999770332463"></path><path id="kity_path_662" fill="none" stroke="gray"></path></g><path id="node_outline54" fill="none" stroke="none" d="M1832.4999485920775,1928.4999770332463h47a5,5,0,0,1,5,5v12a5,5,0,0,1,-5,5h-47a5,5,0,0,1,-5,-5v-12a5,5,0,0,1,5,-5z"></path><g id="node_text54" fill="black"><text id="kity_text_323" text-rendering="inherit" font-size="12" dy=".8em" y="1931.6999770802797" x="1837.4999485920775">Sound</text></g></g><g id="minder_node59"><g id="node_expander54" display="none" style="cursor: pointer;"><path id="kity_path_664" fill="white" stroke="gray" d="M1827.4999488174915,1991.4999763006513A6,6,0,1,1,1815.4999488174915,1991.4999763006513A6,6,0,1,1,1827.4999488174915,1991.4999763006513"></path><path id="kity_path_665" fill="none" stroke="gray"></path></g><path id="node_outline55" fill="none" stroke="none" d="M1832.4999485920775,1980.4999763006513h129a5,5,0,0,1,5,5v12a5,5,0,0,1,-5,5h-129a5,5,0,0,1,-5,-5v-12a5,5,0,0,1,5,-5z"></path><g id="node_text55" fill="black"><text id="kity_text_325" text-rendering="inherit" font-size="12" dy=".8em" y="1983.6999763476847" x="1837.4999485920775">Refutation-complete</text></g></g><g id="minder_node60"><g id="node_expander62" style="cursor: pointer;"><path id="kity_path_688" fill="white" stroke="gray" d="M1659.4999511843378,2108.4999746523117A6,6,0,1,1,1647.4999511843378,2108.4999746523117A6,6,0,1,1,1659.4999511843378,2108.4999746523117"></path><path id="kity_path_689" fill="none" stroke="gray" d="M1648.9999511843378,2108.4999746523117L1657.9999511843378,2108.4999746523117"></path></g><path id="node_outline63" fill="none" stroke="none" d="M1664.4999509589238,2088.4999746523117h211a5,5,0,0,1,5,5v30a5,5,0,0,1,-5,5h-211a5,5,0,0,1,-5,-5v-30a5,5,0,0,1,5,-5z"></path><g id="node_text63" fill="black"><text id="kity_text_341" text-rendering="inherit" font-size="12" dy=".8em" y="2091.699974699345" x="1669.4999509589238">Generalized</text><text id="kity_text_342" text-rendering="inherit" font-size="12" dy=".8em" y="2109.699974699345" x="1669.4999509589238">Modus Ponens for Definite Clauses</text></g></g><g id="minder_node61"><g id="node_expander56" display="none" style="cursor: pointer;"><path id="kity_path_670" fill="white" stroke="gray" d="M1920.4999475072725,2043.4999755680558A6,6,0,1,1,1908.4999475072725,2043.4999755680558A6,6,0,1,1,1920.4999475072725,2043.4999755680558"></path><path id="kity_path_671" fill="none" stroke="gray"></path></g><path id="node_outline57" fill="none" stroke="none" d="M1925.4999472818586,2032.4999755680558h90a5,5,0,0,1,5,5v12a5,5,0,0,1,-5,5h-90a5,5,0,0,1,-5,-5v-12a5,5,0,0,1,5,-5z"></path><g id="node_text57" fill="black"><text id="kity_text_329" text-rendering="inherit" font-size="12" dy=".8em" y="2035.6999756150892" x="1930.4999472818586">Sound (proof)</text></g></g><g id="minder_node62"><g id="node_expander57" display="none" style="cursor: pointer;"><path id="kity_path_673" fill="white" stroke="gray" d="M1920.4999475072725,2095.4999748354603A6,6,0,1,1,1908.4999475072725,2095.4999748354603A6,6,0,1,1,1920.4999475072725,2095.4999748354603"></path><path id="kity_path_674" fill="none" stroke="gray"></path></g><path id="node_outline58" fill="none" stroke="none" d="M1925.4999472818586,2084.4999748354603h109a5,5,0,0,1,5,5v12a5,5,0,0,1,-5,5h-109a5,5,0,0,1,-5,-5v-12a5,5,0,0,1,5,-5z"></path><g id="node_text58" fill="black"><text id="kity_text_331" text-rendering="inherit" font-size="12" dy=".8em" y="2087.6999748824937" x="1930.4999472818586">Complete (proof)</text></g></g><g id="minder_node63"><g id="node_expander61" style="cursor: pointer;"><path id="kity_path_685" fill="white" stroke="gray" d="M1920.4999475072725,2173.4999737365674A6,6,0,1,1,1908.4999475072725,2173.4999737365674A6,6,0,1,1,1920.4999475072725,2173.4999737365674"></path><path id="kity_path_686" fill="none" stroke="gray" d="M1909.9999475072725,2173.4999737365674L1918.9999475072725,2173.4999737365674"></path></g><path id="node_outline62" fill="none" stroke="none" d="M1925.4999472818586,2162.4999737365674h54a5,5,0,0,1,5,5v12a5,5,0,0,1,-5,5h-54a5,5,0,0,1,-5,-5v-12a5,5,0,0,1,5,-5z"></path><g id="node_text62" fill="black"><text id="kity_text_339" text-rendering="inherit" font-size="12" dy=".8em" y="2165.699973783601" x="1930.4999472818586">Process</text></g></g><g id="minder_node64"><g id="node_expander58" display="none" style="cursor: pointer;"><path id="kity_path_676" fill="white" stroke="gray" d="M2024.499946042082,2147.499974102865A6,6,0,1,1,2012.499946042082,2147.499974102865A6,6,0,1,1,2024.499946042082,2147.499974102865"></path><path id="kity_path_677" fill="none" stroke="gray"></path></g><path id="node_outline59" fill="none" stroke="none" d="M2029.499945816668,2136.499974102865h111a5,5,0,0,1,5,5v12a5,5,0,0,1,-5,5h-111a5,5,0,0,1,-5,-5v-12a5,5,0,0,1,5,-5z"></path><g id="node_text59" fill="black"><text id="kity_text_333" text-rendering="inherit" font-size="12" dy=".8em" y="2139.6999741498985" x="2034.499945816668">Forward Chaining</text></g></g><g id="minder_node65"><g id="node_expander60" style="cursor: pointer;"><path id="kity_path_682" fill="white" stroke="gray" d="M2024.499946042082,2199.49997337027A6,6,0,1,1,2012.499946042082,2199.49997337027A6,6,0,1,1,2024.499946042082,2199.49997337027"></path><path id="kity_path_683" fill="none" stroke="gray" d="M2013.999946042082,2199.49997337027L2022.999946042082,2199.49997337027"></path></g><path id="node_outline61" fill="none" stroke="none" d="M2029.499945816668,2188.49997337027h120a5,5,0,0,1,5,5v12a5,5,0,0,1,-5,5h-120a5,5,0,0,1,-5,-5v-12a5,5,0,0,1,5,-5z"></path><g id="node_text61" fill="black"><text id="kity_text_337" text-rendering="inherit" font-size="12" dy=".8em" y="2191.699973417303" x="2034.499945816668">Backward Chaining</text></g></g><g id="minder_node66"><g id="node_expander59" display="none" style="cursor: pointer;"><path id="kity_path_679" fill="white" stroke="gray" d="M2194.499943647059,2199.49997337027A6,6,0,1,1,2182.499943647059,2199.49997337027A6,6,0,1,1,2194.499943647059,2199.49997337027"></path><path id="kity_path_680" fill="none" stroke="gray"></path></g><path id="node_outline60" fill="none" stroke="none" d="M2199.499943421645,2188.49997337027h102a5,5,0,0,1,5,5v12a5,5,0,0,1,-5,5h-102a5,5,0,0,1,-5,-5v-12a5,5,0,0,1,5,-5z"></path><g id="node_text60" fill="black"><text id="kity_text_335" text-rendering="inherit" font-size="12" dy=".8em" y="2191.699973417303" x="2204.499943421645">AND-OR search</text></g></g><g id="minder_node67"><g id="node_expander74" style="cursor: pointer;"><path id="kity_path_724" fill="white" stroke="gray" d="M1361.4999553826722,2335.4999714542514A6,6,0,1,1,1349.4999553826722,2335.4999714542514A6,6,0,1,1,1361.4999553826722,2335.4999714542514"></path><path id="kity_path_725" fill="none" stroke="gray" d="M1350.9999553826722,2335.4999714542514L1359.9999553826722,2335.4999714542514"></path></g><path id="node_outline75" fill="none" stroke="none" d="M1366.4999551572582,2324.4999714542514h123a5,5,0,0,1,5,5v12a5,5,0,0,1,-5,5h-123a5,5,0,0,1,-5,-5v-12a5,5,0,0,1,5,-5z"></path><g id="node_text75" fill="black"><text id="kity_text_366" text-rendering="inherit" font-size="12" dy=".8em" y="2327.699971501285" x="1371.4999551572582">Logic Programming</text></g></g><g id="minder_node68"><g id="node_expander65" display="none" style="cursor: pointer;"><path id="kity_path_697" fill="white" stroke="gray" d="M1534.4999529453842,2251.4999726376745A6,6,0,1,1,1522.4999529453842,2251.4999726376745A6,6,0,1,1,1534.4999529453842,2251.4999726376745"></path><path id="kity_path_698" fill="none" stroke="gray"></path></g><path id="node_outline66" fill="none" stroke="none" d="M1539.4999527199702,2240.4999726376745h278a5,5,0,0,1,5,5v12a5,5,0,0,1,-5,5h-278a5,5,0,0,1,-5,-5v-12a5,5,0,0,1,5,-5z"></path><g id="node_text66" fill="black"><text id="kity_text_348" text-rendering="inherit" font-size="12" dy=".8em" y="2243.699972684708" x="1544.4999527199702">Logic Programming vs. Ordinary Programming</text></g></g><g id="minder_node69"><g id="node_expander73" style="cursor: pointer;"><path id="kity_path_721" fill="white" stroke="gray" d="M1534.4999529453842,2420.4999702567397A6,6,0,1,1,1522.4999529453842,2420.4999702567397A6,6,0,1,1,1534.4999529453842,2420.4999702567397"></path><path id="kity_path_722" fill="none" stroke="gray" d="M1523.9999529453842,2420.4999702567397L1532.9999529453842,2420.4999702567397"></path></g><path id="node_outline74" fill="none" stroke="none" d="M1539.4999527199702,2409.4999702567397h48a5,5,0,0,1,5,5v12a5,5,0,0,1,-5,5h-48a5,5,0,0,1,-5,-5v-12a5,5,0,0,1,5,-5z"></path><g id="node_text74" fill="black"><text id="kity_text_364" text-rendering="inherit" font-size="12" dy=".8em" y="2412.699970303773" x="1544.4999527199702">Prolog</text></g></g><g id="minder_node70"><g id="node_expander69" style="cursor: pointer;"><path id="kity_path_709" fill="white" stroke="gray" d="M1632.4999515647237,2355.499971172484A6,6,0,1,1,1620.4999515647237,2355.499971172484A6,6,0,1,1,1632.4999515647237,2355.499971172484"></path><path id="kity_path_710" fill="none" stroke="gray" d="M1621.9999515647237,2355.499971172484L1630.9999515647237,2355.499971172484"></path></g><path id="node_outline70" fill="none" stroke="none" d="M1637.4999513393097,2344.499971172484h124a5,5,0,0,1,5,5v12a5,5,0,0,1,-5,5h-124a5,5,0,0,1,-5,-5v-12a5,5,0,0,1,5,-5z"></path><g id="node_text70" fill="black"><text id="kity_text_356" text-rendering="inherit" font-size="12" dy=".8em" y="2347.6999712195175" x="1642.4999513393097">Database semantics</text></g></g><g id="minder_node71"><g id="node_expander66" display="none" style="cursor: pointer;"><path id="kity_path_700" fill="white" stroke="gray" d="M1806.499949113347,2303.4999719050793A6,6,0,1,1,1794.499949113347,2303.4999719050793A6,6,0,1,1,1806.499949113347,2303.4999719050793"></path><path id="kity_path_701" fill="none" stroke="gray"></path></g><path id="node_outline67" fill="none" stroke="none" d="M1811.499948887933,2292.4999719050793h267a5,5,0,0,1,5,5v12a5,5,0,0,1,-5,5h-267a5,5,0,0,1,-5,-5v-12a5,5,0,0,1,5,-5z"></path><g id="node_text67" fill="black"><text id="kity_text_350" text-rendering="inherit" font-size="12" dy=".8em" y="2295.6999719521127" x="1816.499948887933">Closed world assumption: not-known is false</text></g></g><g id="minder_node72"><g id="node_expander67" display="none" style="cursor: pointer;"><path id="kity_path_703" fill="white" stroke="gray" d="M1806.499949113347,2355.499971172484A6,6,0,1,1,1794.499949113347,2355.499971172484A6,6,0,1,1,1806.499949113347,2355.499971172484"></path><path id="kity_path_704" fill="none" stroke="gray"></path></g><path id="node_outline68" fill="none" stroke="none" d="M1811.499948887933,2344.499971172484h157a5,5,0,0,1,5,5v12a5,5,0,0,1,-5,5h-157a5,5,0,0,1,-5,-5v-12a5,5,0,0,1,5,-5z"></path><g id="node_text68" fill="black"><text id="kity_text_352" text-rendering="inherit" font-size="12" dy=".8em" y="2347.6999712195175" x="1816.499948887933">Unique name assumption</text></g></g><g id="minder_node73"><g id="node_expander68" display="none" style="cursor: pointer;"><path id="kity_path_706" fill="white" stroke="gray" d="M1806.499949113347,2407.4999704398883A6,6,0,1,1,1794.499949113347,2407.4999704398883A6,6,0,1,1,1806.499949113347,2407.4999704398883"></path><path id="kity_path_707" fill="none" stroke="gray"></path></g><path id="node_outline69" fill="none" stroke="none" d="M1811.499948887933,2396.4999704398883h263a5,5,0,0,1,5,5v12a5,5,0,0,1,-5,5h-263a5,5,0,0,1,-5,-5v-12a5,5,0,0,1,5,-5z"></path><g id="node_text69" fill="black"><text id="kity_text_354" text-rendering="inherit" font-size="12" dy=".8em" y="2399.6999704869218" x="1816.499948887933">Domain closure: only those mentioned exist</text></g></g><g id="minder_node74"><g id="node_expander72" style="cursor: pointer;"><path id="kity_path_718" fill="white" stroke="gray" d="M1632.4999515647237,2485.4999693409954A6,6,0,1,1,1620.4999515647237,2485.4999693409954A6,6,0,1,1,1632.4999515647237,2485.4999693409954"></path><path id="kity_path_719" fill="none" stroke="gray" d="M1621.9999515647237,2485.4999693409954L1630.9999515647237,2485.4999693409954"></path></g><path id="node_outline73" fill="none" stroke="none" d="M1637.4999513393097,2474.4999693409954h45a5,5,0,0,1,5,5v12a5,5,0,0,1,-5,5h-45a5,5,0,0,1,-5,-5v-12a5,5,0,0,1,5,-5z"></path><g id="node_text73" fill="black"><text id="kity_text_362" text-rendering="inherit" font-size="12" dy=".8em" y="2477.699969388029" x="1642.4999513393097">Issues</text></g></g><g id="minder_node75"><g id="node_expander70" display="none" style="cursor: pointer;"><path id="kity_path_712" fill="white" stroke="gray" d="M1727.4999502263283,2459.4999697072935A6,6,0,1,1,1715.4999502263283,2459.4999697072935A6,6,0,1,1,1727.4999502263283,2459.4999697072935"></path><path id="kity_path_713" fill="none" stroke="gray"></path></g><path id="node_outline71" fill="none" stroke="none" d="M1732.4999500009144,2448.4999697072935h280a5,5,0,0,1,5,5v12a5,5,0,0,1,-5,5h-280a5,5,0,0,1,-5,-5v-12a5,5,0,0,1,5,-5z"></path><g id="node_text71" fill="black"><text id="kity_text_358" text-rendering="inherit" font-size="12" dy=".8em" y="2451.699969754327" x="1737.4999500009144">Unification without occur check: may be wrong</text></g></g><g id="minder_node76"><g id="node_expander71" display="none" style="cursor: pointer;"><path id="kity_path_715" fill="white" stroke="gray" d="M1727.4999502263283,2511.499968974698A6,6,0,1,1,1715.4999502263283,2511.499968974698A6,6,0,1,1,1727.4999502263283,2511.499968974698"></path><path id="kity_path_716" fill="none" stroke="gray"></path></g><path id="node_outline72" fill="none" stroke="none" d="M1732.4999500009144,2500.499968974698h335a5,5,0,0,1,5,5v12a5,5,0,0,1,-5,5h-335a5,5,0,0,1,-5,-5v-12a5,5,0,0,1,5,-5z"></path><g id="node_text72" fill="black"><text id="kity_text_360" text-rendering="inherit" font-size="12" dy=".8em" y="2503.6999690217312" x="1737.4999500009144">Depth-first search without checking for infinite recursion</text></g></g><g id="minder_node77"><g id="node_expander93" style="cursor: pointer;"><path id="kity_path_781" fill="white" stroke="gray" d="M744.499970360778,1386.4999848241157A6,6,0,1,1,732.499970360778,1386.4999848241157A6,6,0,1,1,744.499970360778,1386.4999848241157"></path><path id="kity_path_782" fill="none" stroke="gray" d="M733.999970360778,1386.4999848241157L742.999970360778,1386.4999848241157"></path></g><path id="node_outline94" fill="rgb(238, 243, 246)" stroke="rgb(115, 161, 191)" d="M499.4999672028159,1373.4999848241157h229a3,3,0,0,1,3,3v20a3,3,0,0,1,-3,3h-229a3,3,0,0,1,-3,-3v-20a3,3,0,0,1,3,-3z" stroke-width="1"></path><g id="node_text94" fill="black"><text id="kity_text_404" text-rendering="inherit" font-size="14" dy=".8em" y="1377.399984951236" x="516.4999672028159">Fuzzy (Uncertain Knowledge)</text></g></g><g id="minder_node78"><g id="node_expander78" style="cursor: pointer;"><path id="kity_path_736" fill="white" stroke="gray" d="M468.49997034777357,1126.4999884870922A6,6,0,1,1,456.49997034777357,1126.4999884870922A6,6,0,1,1,468.49997034777357,1126.4999884870922"></path><path id="kity_path_737" fill="none" stroke="gray" d="M457.99997034777357,1126.4999884870922L466.99997034777357,1126.4999884870922"></path></g><path id="node_outline79" fill="none" stroke="none" d="M311.4999700204901,1115.4999884870922h140a5,5,0,0,1,5,5v12a5,5,0,0,1,-5,5h-140a5,5,0,0,1,-5,-5v-12a5,5,0,0,1,5,-5z"></path><g id="node_text79" fill="black"><text id="kity_text_374" text-rendering="inherit" font-size="12" dy=".8em" y="1118.6999885341256" x="316.4999700204901">Definition of Fuzzy Set</text></g></g><g id="minder_node79"><g id="node_expander76" display="none" style="cursor: pointer;"><path id="kity_path_730" fill="white" stroke="gray" d="M278.49996760596025,1100.4999888533898A6,6,0,1,1,266.49996760596025,1100.4999888533898A6,6,0,1,1,278.49996760596025,1100.4999888533898"></path><path id="kity_path_731" fill="none" stroke="gray"></path></g><path id="node_outline77" fill="none" stroke="none" d="M127.49997261275041,1089.4999888533898h134a5,5,0,0,1,5,5v12a5,5,0,0,1,-5,5h-134a5,5,0,0,1,-5,-5v-12a5,5,0,0,1,5,-5z"></path><g id="node_text77" fill="black"><text id="kity_text_370" text-rendering="inherit" font-size="12" dy=".8em" y="1092.6999889004233" x="132.4999726127504">Membership function</text></g></g><g id="minder_node80"><g id="node_expander77" display="none" style="cursor: pointer;"><path id="kity_path_733" fill="white" stroke="gray" d="M278.4999650050304,1152.4999881207946A6,6,0,1,1,266.4999650050304,1152.4999881207946A6,6,0,1,1,278.4999650050304,1152.4999881207946"></path><path id="kity_path_734" fill="none" stroke="gray"></path></g><path id="node_outline78" fill="none" stroke="none" d="M135.49997250004344,1141.4999881207946h126a5,5,0,0,1,5,5v12a5,5,0,0,1,-5,5h-126a5,5,0,0,1,-5,-5v-12a5,5,0,0,1,5,-5z"></path><g id="node_text78" fill="black"><text id="kity_text_372" text-rendering="inherit" font-size="12" dy=".8em" y="1144.699988167828" x="140.49997250004344">Fuzzy vs. Probability</text></g></g><g id="minder_node81"><g id="node_expander81" style="cursor: pointer;"><path id="kity_path_745" fill="white" stroke="gray" d="M468.4999667714949,1230.4999870219017A6,6,0,1,1,456.4999667714949,1230.4999870219017A6,6,0,1,1,468.4999667714949,1230.4999870219017"></path><path id="kity_path_746" fill="none" stroke="gray" d="M457.9999667714949,1230.4999870219017L466.9999667714949,1230.4999870219017"></path></g><path id="node_outline82" fill="none" stroke="none" d="M274.4999705417597,1219.4999870219017h177a5,5,0,0,1,5,5v12a5,5,0,0,1,-5,5h-177a5,5,0,0,1,-5,-5v-12a5,5,0,0,1,5,-5z"></path><g id="node_text82" fill="black"><text id="kity_text_380" text-rendering="inherit" font-size="12" dy=".8em" y="1222.6999870689351" x="279.4999705417597">Representation of a fuzzy set</text></g></g><g id="minder_node82"><g id="node_expander79" display="none" style="cursor: pointer;"><path id="kity_path_739" fill="white" stroke="gray" d="M241.4999700779274,1204.4999873881993A6,6,0,1,1,229.4999700779274,1204.4999873881993A6,6,0,1,1,241.4999700779274,1204.4999873881993"></path><path id="kity_path_740" fill="none" stroke="gray"></path></g><path id="node_outline80" fill="none" stroke="none" d="M52.49997366937828,1193.4999873881993h172a5,5,0,0,1,5,5v12a5,5,0,0,1,-5,5h-172a5,5,0,0,1,-5,-5v-12a5,5,0,0,1,5,-5z"></path><g id="node_text80" fill="black"><text id="kity_text_376" text-rendering="inherit" font-size="12" dy=".8em" y="1196.6999874352327" x="57.49997366937828">Discrete and limited domain</text></g></g><g id="minder_node83"><g id="node_expander80" display="none" style="cursor: pointer;"><path id="kity_path_742" fill="white" stroke="gray" d="M241.4999766886242,1256.499986655604A6,6,0,1,1,229.4999766886242,1256.499986655604A6,6,0,1,1,241.4999766886242,1256.499986655604"></path><path id="kity_path_743" fill="none" stroke="gray"></path></g><path id="node_outline81" fill="none" stroke="none" d="M101.49997297904815,1245.499986655604h123a5,5,0,0,1,5,5v12a5,5,0,0,1,-5,5h-123a5,5,0,0,1,-5,-5v-12a5,5,0,0,1,5,-5z"></path><g id="node_text81" fill="black"><text id="kity_text_378" text-rendering="inherit" font-size="12" dy=".8em" y="1248.6999867026375" x="106.49997297904815">Continuous domain</text></g></g><g id="minder_node84"><g id="node_expander86" style="cursor: pointer;"><path id="kity_path_760" fill="white" stroke="gray" d="M468.4999670966113,1386.4999848241157A6,6,0,1,1,456.4999670966113,1386.4999848241157A6,6,0,1,1,468.4999670966113,1386.4999848241157"></path><path id="kity_path_761" fill="none" stroke="gray" d="M457.9999670966113,1386.4999848241157L466.9999670966113,1386.4999848241157"></path></g><path id="node_outline87" fill="none" stroke="none" d="M289.4999703304343,1375.4999848241157h162a5,5,0,0,1,5,5v12a5,5,0,0,1,-5,5h-162a5,5,0,0,1,-5,-5v-12a5,5,0,0,1,5,-5z"></path><g id="node_text87" fill="black"><text id="kity_text_390" text-rendering="inherit" font-size="12" dy=".8em" y="1378.6999848711491" x="294.4999703304343">Operations over fuzzy sets</text></g></g><g id="minder_node85"><g id="node_expander82" display="none" style="cursor: pointer;"><path id="kity_path_748" fill="white" stroke="gray" d="M256.4999752852058,1308.4999859230086A6,6,0,1,1,244.49997528520578,1308.4999859230086A6,6,0,1,1,256.4999752852058,1308.4999859230086"></path><path id="kity_path_749" fill="none" stroke="gray"></path></g><path id="node_outline83" fill="none" stroke="none" d="M61.49997354258301,1297.4999859230086h178a5,5,0,0,1,5,5v12a5,5,0,0,1,-5,5h-178a5,5,0,0,1,-5,-5v-12a5,5,0,0,1,5,-5z"></path><g id="node_text83" fill="black"><text id="kity_text_382" text-rendering="inherit" font-size="12" dy=".8em" y="1300.699985970042" x="66.499973542583">Equivalence of two fuzzy sets</text></g></g><g id="minder_node86"><g id="node_expander83" display="none" style="cursor: pointer;"><path id="kity_path_751" fill="white" stroke="gray" d="M256.4999705168343,1360.4999851904133A6,6,0,1,1,244.4999705168343,1360.4999851904133A6,6,0,1,1,256.4999705168343,1360.4999851904133"></path><path id="kity_path_752" fill="none" stroke="gray"></path></g><path id="node_outline84" fill="none" stroke="none" d="M97.49997303540158,1349.4999851904133h142a5,5,0,0,1,5,5v12a5,5,0,0,1,-5,5h-142a5,5,0,0,1,-5,-5v-12a5,5,0,0,1,5,-5z"></path><g id="node_text84" fill="black"><text id="kity_text_384" text-rendering="inherit" font-size="12" dy=".8em" y="1352.6999852374468" x="102.49997303540158">subsets over fuzzy sets</text></g></g><g id="minder_node87"><g id="node_expander84" display="none" style="cursor: pointer;"><path id="kity_path_754" fill="white" stroke="gray" d="M256.4999752852058,1412.499984457818A6,6,0,1,1,244.49997528520578,1412.499984457818A6,6,0,1,1,256.4999752852058,1412.499984457818"></path><path id="kity_path_755" fill="none" stroke="gray"></path></g><path id="node_outline85" fill="none" stroke="none" d="M61.49997354258301,1401.499984457818h178a5,5,0,0,1,5,5v12a5,5,0,0,1,-5,5h-178a5,5,0,0,1,-5,-5v-12a5,5,0,0,1,5,-5z"></path><g id="node_text85" fill="black"><text id="kity_text_386" text-rendering="inherit" font-size="12" dy=".8em" y="1404.6999845048515" x="66.499973542583">Intersection of two fuzzy sets</text></g></g><g id="minder_node88"><g id="node_expander85" display="none" style="cursor: pointer;"><path id="kity_path_757" fill="white" stroke="gray" d="M256.49997322613626,1464.4999837252228A6,6,0,1,1,244.49997322613626,1464.4999837252228A6,6,0,1,1,256.49997322613626,1464.4999837252228"></path><path id="kity_path_758" fill="none" stroke="gray"></path></g><path id="node_outline86" fill="none" stroke="none" d="M94.49997307766671,1453.4999837252228h145a5,5,0,0,1,5,5v12a5,5,0,0,1,-5,5h-145a5,5,0,0,1,-5,-5v-12a5,5,0,0,1,5,-5z"></path><g id="node_text86" fill="black"><text id="kity_text_388" text-rendering="inherit" font-size="12" dy=".8em" y="1456.6999837722562" x="99.49997307766671">Union of two fuzzy sets</text></g></g><g id="minder_node89"><g id="node_expander89" style="cursor: pointer;"><path id="kity_path_769" fill="white" stroke="gray" d="M468.49996525428594,1542.4999826263297A6,6,0,1,1,456.49996525428594,1542.4999826263297A6,6,0,1,1,468.49996525428594,1542.4999826263297"></path><path id="kity_path_770" fill="none" stroke="gray" d="M457.99996525428594,1542.4999826263297L466.99996525428594,1542.4999826263297"></path></g><path id="node_outline90" fill="none" stroke="none" d="M332.4999697246343,1531.4999826263297h119a5,5,0,0,1,5,5v12a5,5,0,0,1,-5,5h-119a5,5,0,0,1,-5,-5v-12a5,5,0,0,1,5,-5z"></path><g id="node_text90" fill="black"><text id="kity_text_396" text-rendering="inherit" font-size="12" dy=".8em" y="1534.6999826733631" x="337.4999697246343">Fuzzy relationships</text></g></g><g id="minder_node90"><g id="node_expander87" display="none" style="cursor: pointer;"><path id="kity_path_763" fill="white" stroke="gray" d="M299.49996882731364,1516.4999829926273A6,6,0,1,1,287.49996882731364,1516.4999829926273A6,6,0,1,1,299.49996882731364,1516.4999829926273"></path><path id="kity_path_764" fill="none" stroke="gray"></path></g><path id="node_outline88" fill="none" stroke="none" d="M90.49997313402025,1505.4999829926273h192a5,5,0,0,1,5,5v12a5,5,0,0,1,-5,5h-192a5,5,0,0,1,-5,-5v-12a5,5,0,0,1,5,-5z"></path><g id="node_text88" fill="black"><text id="kity_text_392" text-rendering="inherit" font-size="12" dy=".8em" y="1508.6999830396608" x="95.49997313402025">Definition of fuzzy relationships</text></g></g><g id="minder_node91"><g id="node_expander88" display="none" style="cursor: pointer;"><path id="kity_path_766" fill="white" stroke="gray" d="M299.49997066963886,1568.499982260032A6,6,0,1,1,287.49997066963886,1568.499982260032A6,6,0,1,1,299.49997066963886,1568.499982260032"></path><path id="kity_path_767" fill="none" stroke="gray"></path></g><path id="node_outline89" fill="none" stroke="none" d="M47.49997373982012,1557.499982260032h235a5,5,0,0,1,5,5v12a5,5,0,0,1,-5,5h-235a5,5,0,0,1,-5,-5v-12a5,5,0,0,1,5,-5z"></path><g id="node_text89" fill="black"><text id="kity_text_394" text-rendering="inherit" font-size="12" dy=".8em" y="1560.6999823070655" x="52.49997373982012">Composition of two fuzzy relationships</text></g></g><g id="minder_node92"><g id="node_expander92" style="cursor: pointer;"><path id="kity_path_778" fill="white" stroke="gray" d="M468.49997034777357,1646.4999811611392A6,6,0,1,1,456.49997034777357,1646.4999811611392A6,6,0,1,1,468.49997034777357,1646.4999811611392"></path><path id="kity_path_779" fill="none" stroke="gray" d="M457.99997034777357,1646.4999811611392L466.99997034777357,1646.4999811611392"></path></g><path id="node_outline93" fill="none" stroke="none" d="M375.4999691188343,1635.4999811611392h76a5,5,0,0,1,5,5v12a5,5,0,0,1,-5,5h-76a5,5,0,0,1,-5,-5v-12a5,5,0,0,1,5,-5z"></path><g id="node_text93" fill="black"><text id="kity_text_402" text-rendering="inherit" font-size="12" dy=".8em" y="1638.6999812081726" x="380.4999691188343">Fuzzy Logic</text></g></g><g id="minder_node93"><g id="node_expander90" display="none" style="cursor: pointer;"><path id="kity_path_772" fill="white" stroke="gray" d="M342.49996865500196,1620.4999815274368A6,6,0,1,1,330.49996865500196,1620.4999815274368A6,6,0,1,1,342.49996865500196,1620.4999815274368"></path><path id="kity_path_773" fill="none" stroke="gray"></path></g><path id="node_outline91" fill="none" stroke="none" d="M25.49997404976432,1609.4999815274368h300a5,5,0,0,1,5,5v12a5,5,0,0,1,-5,5h-300a5,5,0,0,1,-5,-5v-12a5,5,0,0,1,5,-5z"></path><g id="node_text91" fill="black"><text id="kity_text_398" text-rendering="inherit" font-size="12" dy=".8em" y="1612.6999815744703" x="30.49997404976432">Fuzzy predicates, fuzzy quantifiers, fuzzy modifiers</text></g></g><g id="minder_node94"><g id="node_expander91" display="none" style="cursor: pointer;"><path id="kity_path_775" fill="white" stroke="gray" d="M342.4999730982571,1672.4999807948416A6,6,0,1,1,330.4999730982571,1672.4999807948416A6,6,0,1,1,342.4999730982571,1672.4999807948416"></path><path id="kity_path_776" fill="none" stroke="gray"></path></g><path id="node_outline92" fill="none" stroke="none" d="M102.49997296495974,1661.4999807948416h223a5,5,0,0,1,5,5v12a5,5,0,0,1,-5,5h-223a5,5,0,0,1,-5,-5v-12a5,5,0,0,1,5,-5z"></path><g id="node_text92" fill="black"><text id="kity_text_400" text-rendering="inherit" font-size="12" dy=".8em" y="1664.699980841875" x="107.49997296495974">Deduction of hypothetical syllogisms</text></g></g></g></g></svg>